<svg xmlns="http://www.w3.org/2000/svg" xmlns:svg="http://www.w3.org/2000/svg" id="svg3457" width="465" height="466.25" version="1.1" viewBox="0 0 465 466.25" xml:space="preserve"><metadata id="metadata3463"/><defs id="defs3461"><clipPath id="clipPath3473" clipPathUnits="userSpaceOnUse"><path id="path3475" d="m 0,0 371.8416,0 0,373 L 0,373 0,0 Z"/></clipPath><clipPath id="clipPath3479" clipPathUnits="userSpaceOnUse"><path id="path3481" d="M 0,0 372,0 372,373 0,373 0,0 Z"/></clipPath><clipPath id="clipPath3483" clipPathUnits="userSpaceOnUse"><path id="path3485" d="m 0,0 371.8416,0 0,373 L 0,373 0,0 Z"/></clipPath><clipPath id="clipPath3539" clipPathUnits="userSpaceOnUse"><path id="path3541" d="m 43.75278,38 284.336,0 0,244 -284.336,0 0,-244 z"/></clipPath><clipPath id="clipPath3545" clipPathUnits="userSpaceOnUse"><path id="path3547" d="m 43,38 286,0 0,244 -286,0 0,-244 z"/></clipPath><clipPath id="clipPath3549" clipPathUnits="userSpaceOnUse"><path id="path3551" d="m 43.75278,38 284.336,0 0,244 -284.336,0 0,-244 z"/></clipPath></defs><g id="g3465" transform="matrix(1.25,0,0,-1.25,0,466.25)"><g id="g3469"><g id="g3471" clip-path="url(#clipPath3473)"><g id="g3487"><g id="g3489" clip-path="url(#clipPath3479)"><g id="g3493"><g id="g3495" clip-path="url(#clipPath3483)"><g id="g3497" transform="scale(1.158385,1.158385)"><path id="path3499" fill="none" stroke="#363639" stroke-dasharray="none" stroke-linecap="butt" stroke-linejoin="miter" stroke-miterlimit="4" stroke-opacity="1" stroke-width="3" d="m 159.913,42.386 c 65.165,0 118.098,53.21001 118.098,118.716 0,65.506 -52.933,118.716 -118.098,118.716 -65.165,0 -118.098,-53.21 -118.098,-118.716 0,-65.50599 52.933,-118.716 118.098,-118.716 z m 0.452,-40.79 c 87.463,0 158.508,71.26601 158.508,159.001 0,87.734 -71.045,159 -158.508,159 -87.463,0 -158.509,-71.266 -158.509,-159 C 1.856,72.86201 72.902,1.596 160.365,1.596 Z"/></g><path id="path3501" fill="#363639" fill-opacity="1" fill-rule="nonzero" stroke="none" d="m 30.1157,253.3284 5.05519,-6.063 2.92492,7.3025 c 0.06487,0.1158 0.12974,0.2305 0.19461,0.3486 0.06371,0.1159 0.12279,0.1993 0.17376,0.2514 0.1031,0.1031 0.23862,0.1413 0.40659,0.1159 0,0 0.42512,-0.1228 0.77496,-0.2908 l 1.95651,-0.9869 c 0.19345,-0.1171 0.34867,-0.2132 0.46452,-0.2908 0.11583,-0.0765 0.19344,-0.1355 0.23283,-0.1738 0.1031,-0.1031 0.14132,-0.2444 0.11584,-0.4263 0,0 -0.11468,-0.3869 -0.27107,-0.6197 l -4.20377,-6.6445 7.86543,-0.5803 c 0.16681,0.0127 0.32204,-0.007 0.46451,-0.0579 0.14133,-0.0522 0.25601,-0.1228 0.34868,-0.2144 0.0637,-0.0637 0.1031,-0.1853 0.11584,-0.3672 0,0 0.0069,-0.3996 -0.0197,-0.6591 l -0.36721,-2.1882 c -0.03938,-0.271 -0.08108,-0.4737 -0.12626,-0.6104 -0.04518,-0.1356 -0.10078,-0.234 -0.16449,-0.3001 -0.07761,-0.0776 -0.2004,-0.1216 -0.36836,-0.1355 0,0 -0.35447,0.007 -0.56183,0.0579 l -7.67082,1.9368 1.95652,-7.6499 c 0.05212,-0.2329 0.06486,-0.4321 0.03938,-0.6012 -0.02664,-0.168 -0.08456,-0.2954 -0.17492,-0.3881 -0.05097,-0.0498 -0.15406,-0.1031 -0.30929,-0.1541 0,0 -0.34867,-0.0903 -0.58151,-0.117 l -2.14996,-0.3289 c -0.2838,-0.051 -0.51895,-0.0742 -0.70661,-0.0672 -0.18766,0.007 -0.32551,0.0544 -0.41702,0.1448 -0.06371,0.0637 -0.11816,0.1703 -0.1645,0.3197 0,0 -0.06139,0.3058 -0.04864,0.4749 l -0.58036,7.8631 -6.60511,-4.1632 c -0.24557,-0.168 -0.46451,-0.2653 -0.65912,-0.2908 -0.19345,-0.0266 -0.34751,0.0186 -0.46451,0.1356 -0.02549,0.0255 -0.0834,0.1286 -0.17376,0.3093 0,0 -0.16217,0.3093 -0.21314,0.3881 l -0.9881,1.9553 c -0.18071,0.3359 -0.28033,0.5908 -0.30003,0.7657 -0.01969,0.1737 0.02202,0.3127 0.12511,0.4158 0.1031,0.1031 0.19924,0.1877 0.29076,0.2526 0,0 0.1807,0.1158 0.27106,0.154 l 7.34068,2.8867 -6.08152,5.0355 -0.23283,0.2329 c -0.21894,0.2189 -0.30813,0.4262 -0.27107,0.6197 0,0 0.23284,0.4657 0.58151,0.8132 l 1.51054,1.5117 c 0.36141,0.3614 0.63595,0.5583 0.82361,0.5908 0,0 0.38922,-0.0614 0.61047,-0.2815 l 0.23168,-0.2317"/><path id="path3503" fill="#363639" fill-opacity="1" fill-rule="nonzero" stroke="none" d="m 332.3476,253.3284 5.0564,-6.063 2.9238,7.3025 c 0.0648,0.1158 0.1297,0.2305 0.1934,0.3486 0.066,0.1159 0.1239,0.1993 0.1749,0.2514 0.1031,0.1031 0.2386,0.1413 0.4066,0.1159 0,0 0.4263,-0.1228 0.775,-0.2908 l 1.9565,-0.9869 c 0.1934,-0.1171 0.3487,-0.2132 0.4645,-0.2908 0.1159,-0.0765 0.1946,-0.1355 0.2328,-0.1738 0.1031,-0.1031 0.1414,-0.2444 0.1159,-0.4263 0,0 -0.1159,-0.3869 -0.2711,-0.6197 l -4.2026,-6.6445 7.8631,-0.5803 c 0.1679,0.0127 0.3232,-0.007 0.4657,-0.0579 0.1413,-0.0522 0.2571,-0.1228 0.3475,-0.2144 0.0649,-0.0637 0.1042,-0.1853 0.117,-0.3672 0,0 0.007,-0.3996 -0.0197,-0.6591 l -0.3684,-2.1882 c -0.0382,-0.271 -0.0799,-0.4737 -0.1251,-0.6104 -0.0451,-0.1356 -0.1007,-0.234 -0.1645,-0.3001 -0.0776,-0.0776 -0.2004,-0.1216 -0.3683,-0.1355 0,0 -0.3545,0.007 -0.5618,0.0579 l -7.6697,1.9368 1.9565,-7.6499 c 0.051,-0.2329 0.0637,-0.4321 0.0382,-0.6012 -0.0266,-0.168 -0.0846,-0.2954 -0.1749,-0.3881 -0.051,-0.0498 -0.1541,-0.1031 -0.3093,-0.1541 0,0 -0.3487,-0.0903 -0.5815,-0.117 l -2.15,-0.3289 c -0.2838,-0.051 -0.5189,-0.0742 -0.7066,-0.0672 -0.1865,0.007 -0.3255,0.0544 -0.417,0.1448 -0.0637,0.0637 -0.1193,0.1703 -0.1645,0.3197 0,0 -0.0614,0.3058 -0.0486,0.4749 l -0.5804,7.8631 -6.6051,-4.1632 c -0.2456,-0.168 -0.4645,-0.2653 -0.6591,-0.2908 -0.1923,-0.0266 -0.3475,0.0186 -0.4645,0.1356 -0.0255,0.0255 -0.0834,0.1286 -0.175,0.3093 0,0 -0.1609,0.3093 -0.2119,0.3881 l -0.9881,1.9553 c -0.1808,0.3359 -0.2803,0.5908 -0.3001,0.7657 -0.0197,0.1737 0.022,0.3127 0.1252,0.4158 0.1031,0.1031 0.1992,0.1877 0.2907,0.2526 0,0 0.1807,0.1158 0.271,0.154 l 7.3419,2.8867 -6.0827,5.0355 -0.2317,0.2329 c -0.2201,0.2189 -0.3104,0.4262 -0.271,0.6197 0,0 0.2317,0.4657 0.5803,0.8132 l 1.5106,1.5117 c 0.3614,0.3614 0.6359,0.5583 0.8236,0.5908 0,0 0.3904,-0.0614 0.6105,-0.2815 l 0.2316,-0.2317"/><path id="path3505" fill="#363639" fill-opacity="1" fill-rule="nonzero" stroke="none" d="m 46.39911,297.4675 -1.1549,1.2001 c 1.34719,1.2012 2.61447,2.3723 3.80297,3.5157 1.20009,1.1549 2.32719,2.2866 3.38017,3.3975 0,0 6.59932,-2.6851 9.32037,-3.7033 l 21.10577,-7.8516 -6.55067,19.5119 c -1.77928,5.3158 -3.12415,9.0273 -4.03234,11.139 1.35879,1.2117 2.49054,2.2531 3.39407,3.1218 0,0 2.14765,2.1141 3.95589,3.9513 l 1.15375,-1.2001 c -1.44799,-1.441 -2.27855,-2.3666 -2.49168,-2.7778 -0.2143,-0.4101 -0.29192,-0.7668 -0.23516,-1.075 0.07877,-0.4031 0.56877,-1.0982 1.47115,-2.0862 0,0 1.90438,-2.0643 5.02972,-5.412 l 8.35311,-8.6798 c 1.63447,-1.6993 3.25274,-3.3303 4.85478,-4.8953 1.17925,-1.1514 1.94726,-1.7712 2.30749,-1.8592 0.358,-0.0881 0.746,-0.0336 1.1642,0.1645 0,0 1.375,0.9915 2.8716,2.3839 l 1.1549,-1.1989 c -2.6075,-2.2936 -4.4261,-3.9339 -5.45247,-4.9231 0,0 -2.60636,-2.6157 -5.33205,-5.456 l -1.15491,1.2001 c 1.44915,1.441 2.28202,2.37 2.50211,2.7859 0.2201,0.4158 0.29539,0.7703 0.22588,1.0657 -0.07876,0.4054 -0.56991,1.1005 -1.47114,2.0874 0,0 -1.91713,2.0781 -5.03087,5.412 l -13.24034,13.7593 6.62133,-19.696 c 1.02864,-3.0767 1.8789,-5.5325 2.54844,-7.3674 0,0 1.30666,-3.4126 2.43724,-6.2483 l -0.72399,-0.6962 c 0,0 -1.13173,0.5572 -1.54528,0.7147 l -3.87827,1.5036 -26.78534,10.0745 12.64494,-13.1396 c 1.63563,-1.6993 3.25389,-3.3315 4.85479,-4.8965 1.18038,-1.1514 1.9484,-1.7712 2.3075,-1.8592 0.3591,-0.088 0.746,-0.0336 1.16533,0.1645 0,0 1.37384,0.9927 2.87163,2.384 l 1.15492,-1.199 -4.61849,-4.1551 -4.47715,-4.5988 -1.15492,1.2001 c 1.4364,1.4295 2.26466,2.3527 2.48359,2.7697 0.21893,0.4147 0.30118,0.7761 0.24441,1.0831 -0.09151,0.3927 -0.5815,1.0877 -1.47115,2.0862 0,0 -1.92407,2.0724 -5.04939,5.3946 l -8.35196,8.6798 c -1.63564,1.6994 -3.2539,3.3431 -4.85363,4.9324 -1.17924,1.1503 -1.94609,1.7677 -2.2994,1.85 -0.35215,0.0811 -0.73673,0.0232 -1.15491,-0.1738 0,0 -1.375,-0.9915 -2.87164,-2.3851"/><path id="path3507" fill="#363639" fill-opacity="1" fill-rule="nonzero" stroke="none" d="m 103.8156,344.1087 -0.6394,1.5372 c 2.6365,0.9487 5.0656,1.8847 7.2851,2.8079 0,0 4.4609,1.9311 6.6271,2.984 l 0.6394,-1.5371 c -1.8569,-0.8098 -2.9631,-1.3693 -3.3187,-1.6774 -0.3557,-0.307 -0.5549,-0.6105 -0.5978,-0.9105 -0.0729,-0.4054 0.124,-1.2348 0.5896,-2.4882 0,0 1.0322,-2.6133 2.7443,-6.8611 l 3.6999,-8.886 c 1.4329,-3.4416 2.5959,-5.6205 3.4878,-6.5368 0.8932,-0.9151 1.9635,-1.5348 3.2157,-1.8592 0.9568,-0.2409 2.1199,-0.2676 3.4949,-0.081 1.3727,0.1865 2.8206,0.5977 4.3428,1.2302 1.7758,0.739 3.2608,1.6159 4.4574,2.6307 1.1966,1.0147 2.0075,1.9808 2.4338,2.9005 0.4263,0.9198 0.6464,1.8431 0.6614,2.7698 0.0139,0.9255 -0.19,2.1047 -0.6081,3.5377 0,0 -1.0658,3.1948 -1.9392,5.2938 l -3.0789,7.3963 c -0.9071,2.1777 -1.8245,4.2941 -2.7547,6.3491 -0.6649,1.5082 -1.1468,2.3642 -1.4456,2.5681 -0.2989,0.2051 -0.6835,0.2884 -1.1526,0.2537 0,0 -1.645,-0.4275 -3.5297,-1.1735 l -0.6405,1.5372 c 2.67,0.9615 4.6057,1.6924 5.8127,2.194 0,0 3.0408,1.3403 5.8406,2.6574 l 0.6406,-1.5372 c -1.8731,-0.8167 -2.9828,-1.3773 -3.3315,-1.6832 -0.3475,-0.3046 -0.5502,-0.6081 -0.6093,-0.9151 -0.0568,-0.3996 0.1471,-1.2244 0.6128,-2.4789 0,0 1.0332,-2.6122 2.7453,-6.86 l 3.3489,-8.0461 c 1.6472,-3.9548 2.523,-6.8299 2.6296,-8.6265 0.1065,-1.7967 -0.3209,-3.5991 -1.2789,-5.4085 -0.7205,-1.3519 -1.8372,-2.6331 -3.3512,-3.847 -1.5129,-1.2117 -3.3165,-2.2531 -5.4097,-3.1253 -2.4418,-1.0159 -4.6798,-1.6055 -6.7151,-1.7666 -2.0341,-0.1622 -3.7173,0.0394 -5.0494,0.6024 -1.3322,0.563 -2.3793,1.2684 -3.1416,2.1163 0,0 -2.1279,3.2366 -3.416,6.3271 l -4.4193,10.6155 c -0.907,2.1777 -1.8163,4.2964 -2.7314,6.3584 -0.68,1.5012 -1.17,2.3538 -1.4689,2.5588 -0.2988,0.2039 -0.6788,0.2896 -1.1398,0.2584 0,0 -1.6415,-0.4263 -3.5424,-1.1793"/><path id="path3509" fill="#363639" fill-opacity="1" fill-rule="nonzero" stroke="none" d="m 174.8605,328.6559 0,1.353 c 1.0646,0.5027 1.7423,0.9012 2.0353,1.1965 0.1715,0.1564 0.2919,0.3557 0.3603,0.599 0.1552,0.4853 0.2583,1.5256 0.3104,3.1218 0,0 0.102,3.7879 0.102,4.2408 l 0,13.9956 c 0,2.3585 -0.0255,4.6649 -0.0765,6.9203 -0.0521,1.6472 -0.1761,2.6225 -0.3741,2.926 -0.197,0.3035 -0.5143,0.5283 -0.9522,0.6765 0,0 -1.6797,0.2386 -3.7231,0.2734 l 0,1.6646 c 4.1899,-0.1379 6.7835,-0.2062 7.7797,-0.2074 0,0 3.5632,0.0684 7.3928,0.2074 l 0,-1.6646 c -2.0422,-0.0336 -3.2828,-0.1251 -3.7218,-0.2734 -0.4379,-0.1471 -0.7426,-0.3498 -0.9152,-0.6116 -0.205,-0.3464 -0.3348,-1.1862 -0.3857,-2.523 0,0 -0.051,-2.8091 -0.1031,-7.3882 l 0,-17.4823 c 0,-1.821 0.0336,-3.3037 0.1031,-4.4493 1.9577,-0.1205 3.8979,-0.1808 5.822,-0.1819 4.8432,0 8.235,0.3127 10.1753,0.9371 0,0 0.4205,1.119 0.5931,1.7955 l 1.0298,4.3185 1.726,0 c -0.3777,-2.5844 -0.746,-5.6193 -1.1074,-9.1061 -0.7032,-0.1379 -1.2615,-0.2247 -1.6751,-0.2595 0,0 -2.2658,-0.0787 -4.1215,-0.0787 l -15.2501,0.2085 c 0,0 -3.3234,-0.0695 -5.024,-0.2085"/><path id="path3511" fill="#363639" fill-opacity="1" fill-rule="nonzero" stroke="none" d="m 227.3145,323.0655 0.5456,1.2371 c 1.177,0.0302 1.9577,0.1217 2.3458,0.2746 0.2189,0.073 0.4089,0.2073 0.571,0.4008 0.3371,0.3823 0.8515,1.2927 1.5419,2.7326 0,0 1.6229,3.4242 1.8059,3.8377 l 5.6483,12.806 c 0.951,2.1581 1.858,4.2791 2.721,6.363 0.6186,1.5279 0.8978,2.4708 0.8398,2.8288 -0.0579,0.3568 -0.2571,0.6915 -0.6,1.0032 0,0 -1.4387,0.8954 -3.2945,1.7526 l 0.6707,1.5232 c 3.7787,-1.8174 6.1233,-2.9272 7.0349,-3.3303 0,0 3.2875,-1.375 6.8484,-2.7929 l -0.6719,-1.5233 c -1.8823,0.7935 -3.0546,1.2106 -3.5157,1.2522 -0.461,0.0429 -0.8212,-0.0208 -1.0842,-0.1899 -0.3278,-0.234 -0.7842,-0.951 -1.3715,-2.1534 0,0 -1.1793,-2.5497 -3.0755,-6.7187 l -7.0546,-15.9961 c -0.7356,-1.6658 -1.302,-3.0362 -1.7017,-4.1111 1.7434,-0.9012 3.4937,-1.7388 5.2545,-2.5161 4.4308,-1.9541 7.6604,-3.0372 9.6875,-3.2492 0,0 0.8364,0.8537 1.2673,1.404 l 2.6851,3.5354 1.5789,-0.6974 c -1.3877,-2.2114 -2.9504,-4.8397 -4.688,-7.884 -0.6996,0.1576 -1.2441,0.3035 -1.6368,0.4379 0,0 -2.1047,0.8433 -3.8029,1.5928 l -13.8694,6.3433 c 0,0 -3.0685,1.2777 -4.6799,1.8372"/><path id="path3513" fill="#363639" fill-opacity="1" fill-rule="nonzero" stroke="none" d="m 270.7308,299.6499 1.0877,1.2256 c 1.36,-1.185 2.3377,-1.8674 2.9354,-2.0492 0.2479,-0.0811 0.4854,-0.073 0.7135,0.0278 0.358,0.1448 1.0519,0.746 2.0828,1.8024 0,0 2.9481,3.0883 4.0532,4.3336 l 8.8257,9.9412 c 1.5662,1.7642 3.0779,3.5064 4.5363,5.2267 1.0553,1.2661 1.6102,2.077 1.6646,2.4361 0.0533,0.3579 -0.0336,0.7366 -0.2641,1.1386 0,0 -1.097,1.2928 -2.6018,2.6759 l 1.1052,1.2452 5.3864,-4.9914 5.9043,-5.068 c 2.8207,-2.4349 4.8618,-4.2107 6.1198,-5.3285 1.2719,-1.1283 2.4094,-2.2658 3.4126,-3.4115 -0.8619,-0.5572 -1.5719,-1.075 -2.1338,-1.5499 0,0 -1.4422,-1.3414 -3.9385,-3.7393 l -1.214,1.0773 c 1.1874,1.3125 2.1743,2.5914 2.962,3.8413 -0.4413,0.9243 -1.0402,1.8151 -1.7955,2.6723 -1.2777,1.4584 -2.6353,2.8253 -4.074,4.1031 -0.3081,0.2745 -1.0171,0.8583 -2.1303,1.7526 -1.1109,0.8943 -1.9148,1.5267 -2.4129,1.8985 0,0 -2.5647,-2.7082 -3.708,-3.9442 l -5.9147,-6.5067 c 1.4329,-1.4121 2.779,-2.6759 4.0381,-3.7937 1.5279,-1.3565 2.8937,-2.443 4.1007,-3.2574 0.4564,-0.3127 0.8109,-0.4436 1.0657,-0.3904 0,0 0.8282,0.4935 1.7249,1.3218 l 1.324,1.2591 1.1561,-1.0263 -0.3279,-0.3695 -3.6894,-3.9617 -3.9281,-4.6173 -1.3483,1.1966 1.1178,1.3738 c 0.8259,0.9823 1.2684,1.6554 1.3286,2.0214 0.0591,0.3637 -0.0764,0.7738 -0.4065,1.2302 -0.5943,0.8051 -1.9438,2.1431 -4.0509,4.0127 -0.8596,0.7645 -2.1083,1.8152 -3.7462,3.1519 -1.2152,-1.2394 -2.9563,-3.1369 -5.2255,-5.6923 -2.1303,-2.3978 -3.7161,-4.2489 -4.7575,-5.5521 1.7237,-1.7839 3.7335,-3.6964 6.0329,-5.7375 1.631,-1.448 2.838,-2.428 3.6246,-2.94 0.7854,-0.5131 1.5823,-0.9082 2.3932,-1.185 0.5108,0.2653 1.148,0.673 1.9125,1.2233 0,0 2.2646,1.6066 2.8739,2.1105 l 1.2708,-1.1282 c -2.6597,-2.3238 -4.754,-4.3475 -6.2866,-6.0723 0,0 -2.6701,1.9195 -4.2501,3.3211 l -11.3638,10.3664 c 0,0 -1.8939,1.5893 -5.1849,4.3254"/><path id="path3515" fill="#363639" fill-opacity="1" fill-rule="nonzero" stroke="none" d="m 42.78495,185.9359 1.6646,-0.0429 -0.41122,-7.7716 c 0,0 -0.0093,-2.962 0.01621,-7.2932 l -1.66344,0.0429 c 0.01853,2.0271 -0.04054,3.2655 -0.17723,3.7161 -0.13438,0.4494 -0.33014,0.7645 -0.58614,0.9429 -0.34057,0.2143 -1.17808,0.366 -2.51254,0.4518 0,0 -2.82414,0.1251 -7.38239,0.2965 l -12.04141,0.3151 c -2.35847,0.0626 -4.66366,0.0973 -6.92019,0.1043 -1.64839,-0.008 -2.62606,-0.1066 -2.935352,-0.2966 -0.30813,-0.1888 -0.542124,-0.5004 -0.700823,-0.9348 0,0 -0.281488,-1.6716 -0.370684,-3.7138 l -1.664599,0.0429 c 0.191133,3.3268 0.310448,5.8753 0.356783,7.6442 0,0 0.057919,4.2246 0.038226,7.4206 l 1.6646,-0.0441 c -0.019693,-2.026 0.039385,-3.2643 0.176074,-3.7149 0.134373,-0.4495 0.33014,-0.7553 0.587302,-0.9174 0.339403,-0.2317 1.176923,-0.3904 2.511373,-0.4773 0,0 2.80677,-0.1077 7.38355,-0.2966 l 5.35637,-0.1413 c 0,0 -1.32403,2.062 -2.53918,3.3663 l -3.08825,3.3269 -5.64944,5.895 c 0,0 -3.58057,3.6756 -4.209575,4.2072 l -1.898594,0.0499 c 0.122789,2.041 0.199243,3.6443 0.230519,4.8131 0,0 0.033593,2.6005 0.00116,4.045 l 1.691243,-0.044 c -0.042861,-1.6298 -0.00232,-2.7303 0.12163,-3.3014 0.122789,-0.5699 0.368369,-1.134 0.736729,-1.6947 0,0 2.19746,-2.8392 4.23622,-5.1618 l 9.22306,-10.5227 15.01962,15.0682 c 2.42334,2.4269 3.74274,3.81 3.96052,4.1482 0,0 0.34751,0.9951 0.39038,1.9739 l 1.61247,-0.0417 c -0.11353,-1.6808 -0.17608,-2.8044 -0.19229,-3.3721 -0.01622,-0.6336 -0.01738,-1.9738 -0.0012,-4.0195 0,0 -1.84183,-1.7805 -4.29993,-4.1899 l -2.64343,-2.5856 -11.38577,-11.4019 0.32319,-0.6012 5.04477,-0.1309 c 2.35847,-0.0626 4.65555,-0.0892 6.89471,-0.0776 1.64722,-0.0105 2.62953,0.0799 2.94808,0.2699 0.31624,0.1899 0.55487,0.505 0.71473,0.9475 0,0 0.28148,1.6762 0.36952,3.7011"/><path id="path3517" fill="#363639" fill-opacity="1" fill-rule="nonzero" stroke="none" d="m 355.4458,139.4707 1.492,-0.5398 -0.9638,-6.2541 c -0.461,-0.563 -0.8375,-0.929 -1.1294,-1.0982 -0.2919,-0.1679 -1.0993,-0.4506 -2.4245,-0.8479 -1.9634,-0.585 -4.5536,-1.1445 -7.7739,-1.6796 -3.2168,-0.5329 -6.8541,-1.0252 -10.9085,-1.4747 0,0 4.2906,-5.4699 6.7569,-8.3913 l 7.0117,-8.374 -1.3414,-3.7057 -0.6603,0.2387 c -0.6731,1.2487 -2.2438,3.6605 -4.7112,7.2399 -1.4283,2.0689 -3.5783,4.8652 -6.4522,8.3902 -1.77,2.1928 -2.8797,3.4716 -3.3303,3.8354 0,0 -0.9013,0.6267 -1.3577,0.7935 l -1.8847,0.6811 c -2.2171,0.8028 -4.3856,1.5603 -6.5078,2.2739 -1.5672,0.512 -2.5299,0.7286 -2.8924,0.6499 -0.3603,-0.0788 -0.6835,-0.3001 -0.9719,-0.6615 0,0 -0.7958,-1.4978 -1.5233,-3.4079 l -1.5662,0.5676 c 1.0831,2.5843 1.9716,4.8374 2.6678,6.7591 0,0 1.4816,4.2953 2.4442,7.3627 l 1.565,-0.5676 c -0.6568,-1.9159 -0.9928,-3.1102 -1.0055,-3.5805 -0.0139,-0.4692 0.0753,-0.8213 0.2687,-1.0565 0.2491,-0.3266 0.9928,-0.7425 2.2323,-1.2464 0,0 2.6399,-1.009 6.9109,-2.611 l 2.8623,-1.0368 c 0.8573,0.0742 1.6368,0.1657 2.3411,0.2757 0,0 2.1894,0.395 5.1016,0.9488 l 3.2203,0.6417 c 2.5438,0.505 4.3659,0.9035 5.4699,1.1989 2.1221,0.5642 3.6894,1.1017 4.7054,1.6113 0.5594,0.2722 1.0042,0.6082 1.3344,1.0102 0,0 0.6695,1.0865 1.0205,2.0549"/><path id="path3519" fill="#363639" fill-opacity="1" fill-rule="nonzero" stroke="none" d="m 300.5025,102.1337 0.9383,-0.7843 c -0.27,-1.1607 -0.3951,-1.82907 -0.3719,-2.00631 0.0232,-0.17491 0.1379,-0.39499 0.3475,-0.65911 0.3325,-0.41353 1.1237,-1.19082 2.3712,-2.3353 0,0 2.2114,-1.99937 2.8891,-2.56698 l 12.0356,-10.06174 c 1.3031,-1.09004 2.8658,-2.32951 4.6891,-3.71957 1.148,-0.86994 1.9102,-1.35068 2.2867,-1.44219 0.2502,-0.05213 0.4923,-0.01969 0.7274,0.09846 0,0 1.4028,1.09815 2.5624,2.45694 l 1.2568,-1.05066 c 0,0 -0.8595,-0.94871 -1.4109,-1.60667 l -3.5365,-4.0277 -5.9008,-7.42295 c -1.6079,-1.92291 -3.0466,-3.23884 -4.3162,-3.94661 -1.2695,-0.70662 -2.5982,-0.97768 -3.9871,-0.81435 -1.3878,0.16565 -2.6342,0.7101 -3.7393,1.63217 -0.878,0.73441 -1.5569,1.59857 -2.0364,2.59362 -0.4808,0.99389 -0.7576,2.02023 -0.8329,3.07898 -0.0753,1.05993 0.0104,2.09553 0.2583,3.10912 0.2479,1.01242 0.7101,2.22062 1.3866,3.62574 -1.4341,-1.42018 -2.6909,-2.48474 -3.7717,-3.19367 -1.0785,-0.71009 -2.1673,-1.14795 -3.2678,-1.3136 -1.0993,-0.16565 -2.1929,-0.07414 -3.2806,0.27453 -1.0865,0.34868 -2.1279,0.94061 -3.1276,1.7758 -1.9681,1.64607 -3.2088,3.68367 -3.7196,6.11512 -0.512,2.43029 -0.3498,4.87449 0.4854,7.33374 0,0 1.7295,3.69062 3.3164,5.58921 l 4.951,5.59731 c 0,0 1.4491,1.84187 2.7975,3.67097 z m 16.6274,-23.47008 -4.7505,3.97094 c -0.6684,-0.71704 -1.2383,-1.35879 -1.7121,-1.92639 -1.3657,-1.63333 -2.2936,-2.99907 -2.7848,-4.10185 -0.4911,-1.0993 -0.7344,-2.0654 -0.7298,-2.89943 0.006,-0.83172 0.2259,-1.70399 0.6615,-2.6168 0.4344,-0.91165 1.1248,-1.7619 2.0689,-2.55307 1.6634,-1.39007 3.3013,-1.8708 4.9162,-1.44104 1.6147,0.43092 3.2643,1.65302 4.9497,3.66861 0.936,1.12015 1.7237,2.26464 2.3608,3.43229 0,0 -2.6643,2.52991 -4.9799,4.46674 z M 297.8,94.72346 c -1.0657,-0.7877 -2.055,-1.72831 -2.9701,-2.82298 -1.4538,-1.73873 -2.3585,-3.36743 -2.7118,-4.88491 -0.3522,-1.51748 -0.2236,-3.01875 0.388,-4.50496 0.6116,-1.48504 1.6229,-2.81719 3.0338,-3.99642 1.3971,-1.16766 2.7964,-1.87891 4.2004,-2.13491 1.4016,-0.25484 2.7812,-0.03823 4.14,0.65333 1.3553,0.68924 3.0651,2.2658 5.1247,4.72968 0,0 1.053,1.31246 1.7376,2.24148 l -7.5643,6.32362 c -0.732,0.61164 -2.5241,2.07698 -5.3783,4.39607"/><path id="path3521" fill="#363639" fill-opacity="1" fill-rule="nonzero" stroke="none" d="m 267.5812,69.09882 0.8688,-1.39005 c -1.5199,-0.96957 -2.4523,-1.71441 -2.7941,-2.23685 -0.1482,-0.21545 -0.2062,-0.44481 -0.1749,-0.69155 0.0382,-0.38458 0.4182,-1.22094 1.141,-2.50791 0,0 2.1303,-3.69987 3.013,-5.11195 l 7.0453,-11.2734 c 1.2499,-1.99938 2.494,-3.94199 3.7335,-5.82668 0.9162,-1.37037 1.5383,-2.13143 1.8673,-2.28433 0.3278,-0.15291 0.717,-0.17492 1.1665,-0.06835 0,0 1.5499,0.68692 3.3014,1.74105 l 0.8827,-1.41206 -6.3086,-3.75897 -6.5287,-4.2339 c -3.1323,-2.0179 -5.412,-3.47399 -6.8402,-4.36595 -1.4411,-0.90122 -2.8532,-1.67039 -4.2363,-2.30982 -0.2907,0.98347 -0.5861,1.81172 -0.885,2.48358 0,0 -0.878,1.7619 -2.4743,4.8351 l 1.3762,0.85952 c 0.9244,-1.50822 1.8731,-2.81719 2.8485,-3.92577 1.0124,0.16333 2.0353,0.48537 3.0708,0.96841 1.7596,0.81319 3.4543,1.73063 5.0865,2.74885 0.3499,0.21894 1.1109,0.73442 2.282,1.54992 1.1723,0.81319 2.0064,1.40512 2.5033,1.77812 0,0 -1.8743,3.22494 -2.7361,4.67177 l -4.5733,7.51097 c -1.7584,-0.97652 -3.3524,-1.91134 -4.7784,-2.80329 -1.7341,-1.0831 -3.16,-2.08741 -4.2837,-3.01412 -0.4286,-0.34983 -0.6545,-0.65333 -0.6753,-0.91281 0,0 0.2398,-0.93365 0.7819,-2.02717 l 0.8329,-1.62637 -1.3101,-0.81899 -0.2618,0.41934 -2.7582,4.65671 -3.3222,5.07257 1.5291,0.95451 1.0031,-1.45841 c 0.7089,-1.07034 1.2291,-1.68429 1.5627,-1.84531 0.3336,-0.15986 0.7645,-0.14596 1.2962,0.04286 0.9395,0.34172 2.6041,1.25917 4.9927,2.75233 0.9753,0.6093 2.3353,1.51053 4.0821,2.70367 -0.8468,1.51516 -2.1754,3.72189 -3.986,6.62017 -1.7005,2.72105 -3.028,4.76443 -3.9837,6.13132 -2.1974,-1.14911 -4.5999,-2.53801 -7.2075,-4.1667 -1.8499,-1.15607 -3.1311,-2.0376 -3.8435,-2.64807 -0.7135,-0.60815 -1.3171,-1.26148 -1.8128,-1.96115 0.11,-0.56413 0.322,-1.2916 0.6347,-2.18008 0,0 0.9013,-2.62605 1.2129,-3.35237 l -1.441,-0.90122 c -1.4793,3.20642 -2.8288,5.78845 -4.0509,7.74497 0,0 2.5948,2.02021 4.3868,3.14038 l 13.1512,7.97432 c 0,0 2.0607,1.36921 5.6135,3.75316"/><path id="path3523" fill="#363639" fill-opacity="1" fill-rule="nonzero" stroke="none" d="m 233.7193,14.48908 0.3486,-1.62753 c 0,0 -1.6634,-0.31276 -3.0141,-0.56645 l -4.8629,-0.90933 c -0.958,-0.20504 -2.4361,-0.55719 -4.4366,-1.05761 -2.5983,-0.663753 -4.1065,-1.03907 -4.527,-1.130583 -3.2064,-0.686922 -5.6066,-0.900065 -7.2005,-0.63827 -1.5916,0.261795 -2.9296,0.953352 -4.015,2.079303 -1.0842,1.12479 -1.7897,2.44998 -2.1163,3.97674 -0.3059,1.42365 -0.2317,2.92028 0.2224,4.49106 0.4541,1.56845 1.2985,2.97241 2.5345,4.2142 1.236,1.24063 2.9493,2.36079 5.1409,3.36395 0,0 -1.8198,1.61363 -3.8226,3.33036 l -8.1585,7.08468 c -2.318,1.9681 -3.6571,3.05582 -4.0185,3.26317 -0.1761,0.08572 -0.3452,0.13669 -0.5074,0.15638 0,0 -0.834,-0.04518 -1.69,-0.22936 l -0.3487,1.62869 c 1.2974,0.17144 2.4245,0.36026 3.3825,0.5653 0.9904,0.21198 2.1963,0.52359 3.6199,0.93481 1.3634,-1.03791 3.7254,-3.1288 7.0882,-6.27497 1.8673,-1.74569 3.4937,-3.18903 4.8803,-4.32889 0,0 4.3706,-3.59447 6.3618,-5.10152 l -0.088,-0.81667 c -0.8839,-0.13668 -1.5523,-0.25368 -2.0064,-0.34983 -3.0546,-0.65564 -5.2162,-1.88122 -6.4823,-3.67787 -1.2661,-1.79666 -1.6426,-3.88986 -1.1306,-6.28192 0.4472,-2.08626 1.4828,-3.59795 3.1068,-4.53624 1.6241,-0.93713 3.8123,-1.11089 6.5658,-0.52127 1.7294,0.37068 3.3685,0.99621 4.9196,1.8789 -0.1297,0.93018 -0.2629,1.79665 -0.3996,2.60173 0,0 -0.5051,2.71989 -1.4109,7.44031 l -2.4211,11.29425 c -0.4946,2.30635 -1.0089,4.54551 -1.5452,6.71864 -0.3788,1.60436 -0.6974,2.53686 -0.9557,2.80213 -0.2583,0.26411 -0.6221,0.42049 -1.09,0.47146 0,0 -1.6948,-0.11931 -3.6849,-0.51085 l -0.3486,1.6287 c 2.414,0.37531 4.6196,0.77727 6.6178,1.20471 0,0 4.3092,0.99506 8.0925,1.94841 l 0.3487,-1.62869 c -1.9739,-0.45757 -3.1636,-0.80508 -3.569,-1.04371 -0.4055,-0.23747 -0.6661,-0.50158 -0.7796,-0.79233 -0.1286,-0.38227 -0.0776,-1.23136 0.1517,-2.54845 0,0 0.5422,-2.77433 1.448,-7.2457 l 2.5241,-11.7773 c 0.4947,-2.30634 1.0032,-4.55593 1.5256,-6.74991 0.3962,-1.60089 0.7217,-2.5276 0.98,-2.7836 0.256,-0.25484 0.6128,-0.40891 1.0727,-0.46219 0,0 1.6912,0.11931 3.6976,0.51316"/><path id="path3525" fill="#363639" fill-opacity="1" fill-rule="nonzero" stroke="none" d="m 173.2793,42.97493 -0.3822,-1.59394 c -1.7573,0.40428 -2.9412,0.54676 -3.5539,0.42513 -0.2572,-0.04518 -0.4622,-0.16565 -0.6163,-0.36142 -0.2479,-0.29654 -0.5769,-1.15375 -0.9881,-2.57161 0,0 -1.1457,-4.11227 -1.5337,-5.73169 l -4.9486,-20.61578 c -0.1333,-0.55718 -0.1877,-0.92671 -0.1611,-1.11205 0.0603,-0.33593 0.2746,-0.77033 0.6418,-1.30434 0.2352,-0.341727 0.5398,-0.59773 0.9151,-0.769171 0,0 1.2349,-0.423969 2.5844,-0.766851 L 164.8533,6.97927 c -2.7721,0.736733 -4.5177,1.19082 -5.2359,1.364578 -1.2187,0.291913 -2.4373,0.549074 -3.6559,0.770326 0,0 -1.682,3.845836 -2.1361,4.899966 l -3.6373,7.69516 -5.3552,11.02319 c -1.7167,3.5157 -3.108,6.29235 -4.1725,8.33226 0,0 -1.2418,2.40133 -1.7237,3.19599 l -4.4378,-18.49246 c -0.3961,-1.65186 -0.8039,-3.6049 -1.2209,-5.86027 -0.2699,-1.41555 -0.3695,-2.30867 -0.3,-2.68398 0.0648,-0.24674 0.2015,-0.4483 0.4112,-0.607 0,0 1.6078,-0.768 3.3408,-1.2024 l -0.3823,-1.59394 c -1.9542,0.54097 -3.942,1.05182 -5.9633,1.53834 0,0 -3.6397,0.83751 -5.2093,1.14332 l 0.3823,1.59394 c 1.741,-0.4008 2.9145,-0.54907 3.5226,-0.44482 0.2583,0.04518 0.4645,0.17376 0.6232,0.38574 0.2433,0.28033 0.5723,1.13754 0.9881,2.57278 0,-0.0012 1.1434,4.10416 1.5279,5.70504 l 2.9203,12.16884 c 0,0 1.6519,7.06615 3.1833,13.81606 l 2.3978,-1.37848 0.5711,-0.2699 c 0.0927,-0.05792 0.1714,-0.12974 0.2386,-0.21778 0.0973,-0.11236 0.3336,-0.52475 0.7101,-1.24063 0,0 1.7353,-3.35932 2.194,-4.32541 l 2.2415,-4.89881 12.6183,-25.68835 4.6555,19.4018 c 0.3973,1.65185 0.8063,3.61415 1.2268,5.88575 0.2699,1.41555 0.3683,2.30171 0.2942,2.65849 -0.0603,0.26412 -0.1946,0.47378 -0.4043,0.63248 0,0 -1.6078,0.76917 -3.3408,1.20356 l 0.3823,1.59394 c 1.441,-0.47147 3.0465,-0.9186 4.8177,-1.34488 0,0 4.0543,-0.9105 6.3537,-1.33678"/><path id="path3527" fill="#363639" fill-opacity="1" fill-rule="nonzero" stroke="none" d="m 113.092,62.36861 -1.0159,-1.2858 c -1.4248,1.10393 -2.4407,1.73062 -3.0466,1.87658 -0.2537,0.06719 -0.49,0.04402 -0.7112,-0.06835 -0.3499,-0.16564 -1.0078,-0.80624 -1.9762,-1.9206 0,0 -2.7651,-3.25158 -3.7972,-4.5594 L 94.30529,45.97862 c -1.46188,-1.84994 -2.87048,-3.67671 -4.22811,-5.478 -0.98,-1.3252 -1.48736,-2.16734 -1.52095,-2.52876 -0.03359,-0.36025 0.07645,-0.73325 0.32897,-1.12131 0,0 1.16998,-1.22789 2.75117,-2.52181 l -1.03096,-1.30666 -5.66567,4.67409 -6.18577,4.71926 c -2.95619,2.26811 -5.09574,3.92461 -6.41629,4.96831 -1.33447,1.05413 -2.53456,2.12332 -3.60374,3.20989 0.82824,0.60583 1.50938,1.16302 2.04223,1.67039 0,0 1.36111,1.42018 3.71726,3.9582 l 1.27306,-1.00548 c -1.10973,-1.37732 -2.02138,-2.71294 -2.7361,-4.00454 0.49463,-0.89774 1.14332,-1.75263 1.94725,-2.56466 1.35878,-1.38311 2.79286,-2.67008 4.30223,-3.86321 0.3232,-0.25485 1.06572,-0.79697 2.22758,-1.62638 1.1607,-0.8294 1.99937,-1.41438 2.51833,-1.75727 0,0 2.40481,2.85195 3.47515,4.1505 l 5.5313,6.83679 c -1.51286,1.32751 -2.92956,2.51253 -4.25012,3.55508 -1.60321,1.26727 -3.03034,2.27159 -4.28139,3.01643 -0.47378,0.28613 -0.83519,0.39617 -1.08657,0.32899 0,0 -0.79813,-0.54097 -1.64606,-1.41903 l -1.2499,-1.3333 -1.21282,0.95799 0.30697,0.38806 3.4543,4.16671 3.65586,4.83625 1.41439,-1.11784 -1.0356,-1.43523 c -0.768,-1.02865 -1.17113,-1.726 -1.21051,-2.09436 -0.03823,-0.36721 0.12047,-0.76917 0.47725,-1.20473 0.63827,-0.77032 2.06308,-2.02833 4.27328,-3.77402 0.90355,-0.7124 2.21021,-1.69008 3.9223,-2.93187 1.14215,1.30898 2.77086,3.30255 4.88954,5.98422 1.98895,2.51717 3.46475,4.4563 4.42965,5.81625 -1.8233,1.68314 -3.93965,3.47631 -6.35256,5.38186 -1.71094,1.35183 -2.97358,2.26116 -3.78793,2.72684 -0.81318,0.46683 -1.631,0.81434 -2.45693,1.04603 -0.49463,-0.29425 -1.10742,-0.7379 -1.83952,-1.33215 0,0 -2.16734,-1.73411 -2.74653,-2.27276 l -1.33446,1.05413 c 2.5218,2.472 4.49685,4.61385 5.92745,6.4244 0,-0.0011 2.7755,-1.76305 4.4343,-3.07203 l 11.94068,-9.69568 c 0,0 1.9831,-1.47694 5.4247,-4.0196"/><path id="path3529" fill="#363639" fill-opacity="1" fill-rule="nonzero" stroke="none" d="m 50.58204,78.22343 2.33762,1.23368 0.89312,-1.32405 c -3.4265,-2.33065 -5.75833,-4.00684 -6.99549,-5.02854 -0.98926,1.59046 -2.55887,4.07289 -4.70999,7.44958 -1.75843,2.72916 -2.93998,4.54319 -3.5435,5.43977 -0.65333,0.96842 -2.20904,3.18093 -4.66714,6.64103 -1.77696,2.50906 -3.08709,4.32888 -3.93271,5.45715 0,0 4.18177,2.40715 7.36964,4.47365 l 0.92208,-1.3669 -1.95535,-1.56726 c -1.17461,-0.95682 -1.83373,-1.51516 -1.97737,-1.67502 -0.14364,-0.15986 -0.22473,-0.30119 -0.24442,-0.4286 -0.01853,-0.12626 0.0035,-0.28265 0.06603,-0.46915 0.09035,-0.2282 0.51316,-0.97768 1.26727,-2.2519 0,0 1.37153,-2.26464 1.8511,-2.97821 l 1.75843,-2.60521 c 0,0 3.3848,1.97389 5.72937,3.55392 l 12.61713,8.51063 c 1.95536,1.3194 3.84584,2.6249 5.67261,3.9189 1.33678,0.9637 2.0793,1.6147 2.22873,1.9541 0.14828,0.3371 0.16102,0.7287 0.03823,1.1746 0,0 -0.74136,1.5256 -1.85573,3.24 l 1.3808,0.9302 c 1.60436,-2.6249 2.8392,-4.5791 3.70219,-5.8614 0,0 1.92987,-2.7373 4.66714,-6.546 l -1.37964,-0.93137 c -1.17113,1.67497 -1.9426,2.65497 -2.31561,2.94347 -0.37184,0.2884 -0.70777,0.4228 -1.01127,0.4066 -0.41239,-0.009 -1.18503,-0.3661 -2.32256,-1.0692 0,0 -2.36311,-1.5534 -6.1823,-4.04624 L 47.41618,88.91995 c 0,0 -1.25569,-0.86647 -1.95536,-1.3808 l -3.55856,-2.58666 2.14533,-3.1821 c 1.23947,-1.83719 2.29476,-3.24694 3.16934,-4.23272 0.27338,-0.31277 0.51548,-0.47032 0.72747,-0.47263 0,0 1.22789,0.39385 2.63764,1.15839"/><path id="path3531" fill="#363639" fill-opacity="1" fill-rule="nonzero" stroke="none" d="m 46.20566,152.2315 1.58236,0.5178 c 0,0 1.6866,-5.8255 2.04455,-6.9202 l 2.67007,-7.5017 -1.58235,-0.5178 c -0.66144,1.916 -1.1329,3.0628 -1.41207,3.4416 -0.27917,0.3788 -0.56761,0.6093 -0.86994,0.6915 -0.3927,0.0881 -1.23137,-0.0498 -2.51833,-0.417 0,0 -2.70252,-0.8294 -7.05457,-2.1975 l -11.44832,-3.7427 c -2.24263,-0.7321 -4.42619,-1.4735 -6.55414,-2.2229 -1.54877,-0.5607 -2.4384,-0.9824 -2.66545,-1.265 -0.22704,-0.2815 -0.34288,-0.6522 -0.34635,-1.1155 0,0 0.29422,-1.6693 0.89658,-3.6234 l -1.58235,-0.5178 c -0.9047,3.1554 -1.63332,5.5811 -2.18819,7.2804 0,0 -1.375,4.0138 -2.52644,7.1426 l 1.58236,0.5166 c 0.66723,-1.931 1.13869,-3.0824 1.4167,-3.4531 0.2757,-0.3707 0.56298,-0.5966 0.86416,-0.6788 0.39385,-0.0881 1.23252,0.051 2.51949,0.4158 0,0 2.68513,0.8248 7.05456,2.1975 l 11.44832,3.7427 c 2.24148,0.7333 4.41808,1.4712 6.52866,2.216 1.54992,0.5607 2.44303,0.9835 2.67934,1.2685 0.23516,0.2838 0.35447,0.6568 0.3591,1.1201 0,0 -0.29538,1.6693 -0.89775,3.6223"/><path id="path3533" fill="#363639" fill-opacity="1" fill-rule="nonzero" stroke="none" d="m 329.2548,184.6501 -1.6647,-0.002 0.1947,7.7798 c 0,0 -0.0754,2.962 -0.2213,7.2897 l 1.6646,0.004 c 0.0382,-2.0261 0.1309,-3.2632 0.2803,-3.7092 0.1471,-0.446 0.351,-0.7541 0.6128,-0.9267 0.3464,-0.205 1.1874,-0.3325 2.5242,-0.3811 0,0 2.8264,-0.0464 7.3881,-0.0904 l 12.0449,0.022 c 2.3585,0.005 4.6648,0.0348 6.9202,0.0904 1.6472,0.0544 2.6226,0.1795 2.9261,0.3776 0.3023,0.1981 0.5282,0.5167 0.6753,0.9557 0,-0.001 0.2352,1.6785 0.2653,3.7219 l 1.6658,0.003 c -0.0985,-3.3314 -0.146,-5.8822 -0.1426,-7.6511 0,0 0.0591,-4.2246 0.1692,-7.4183 l -1.6646,-0.003 c -0.0382,2.026 -0.1309,3.262 -0.2803,3.7091 -0.1483,0.446 -0.3522,0.7449 -0.6128,0.9001 -0.3464,0.2224 -1.1874,0.3579 -2.5241,0.4077 0,0 -2.8092,0.029 -7.3882,0.0892 l -5.3599,-0.009 c 0,0 1.382,-2.0236 2.6342,-3.2921 l 3.1786,-3.2411 5.8128,-5.7341 c 0,0 3.6825,-3.5736 4.3254,-4.0879 l 1.8986,0.004 c -0.0649,-2.0434 -0.0961,-3.6489 -0.095,-4.8166 0,0 0.0394,-2.6017 0.1112,-4.0451 l -1.6901,-0.003 c -0.004,1.6321 -0.0741,2.7303 -0.2143,3.2979 -0.1401,0.5664 -0.4008,1.1236 -0.7842,1.6727 0,0 -2.2762,2.7766 -4.3787,5.0413 l -9.515,10.261 -14.5921,-15.4819 c -2.3539,-2.4951 -3.6339,-3.9141 -3.8424,-4.2582 0,0 -0.3186,-1.0043 -0.3348,-1.9843 l -1.6136,-0.003 c 0.0671,1.6832 0.0996,2.808 0.0984,3.3756 -0.001,0.6359 -0.037,1.975 -0.1112,4.0184 0,0 1.7909,1.8314 4.1806,4.3104 l 2.5705,2.6573 11.0614,11.7147 -0.3394,0.5931 -5.0459,-0.009 c -2.3585,-0.005 -4.6567,-0.0429 -6.8947,-0.1159 -1.6472,-0.037 -2.6261,-0.154 -2.9389,-0.3533 -0.3116,-0.1981 -0.5409,-0.5201 -0.6881,-0.9672 0,0 -0.2339,-1.6832 -0.2663,-3.7103"/></g></g></g></g></g></g><g id="g3535" opacity=".103"><g id="g3537" clip-path="url(#clipPath3539)"><g id="g3553"><g id="g3555" clip-path="url(#clipPath3545)"><g id="g3559"><g id="g3561" clip-path="url(#clipPath3549)"><path id="path3563" fill="#000" fill-opacity="1" fill-rule="nonzero" stroke="none" d="m 140.2948,281.3387 c -0.4629,-5.4883 -7.8027,-12.0346 -1.3225,-16.5311 0.9257,-2.4466 3.9013,-3.5046 4.6287,-6.6125 1.8515,-0.3967 4.0997,-1.1902 4.6287,-3.3062 1.1903,-3.5046 -5.4883,-7.6044 0.6613,-9.2575 2.2482,1.7193 3.9675,4.8271 5.9512,7.2738 l 0.6612,-0.6613 c 0.4629,0.6613 1.5871,1.058 1.3225,1.9837 l 0.6613,-0.6612 c 5.0255,4.5626 13.2249,2.2482 19.8374,3.3062 4.232,-0.0661 9.0591,-2.7111 12.5637,-0.6612 8.7946,-0.8596 15.8699,4.1658 23.8048,3.3062 2.4467,-2.1821 4.8272,1.5209 7.2738,-0.6612 4.2981,5.0916 7.6043,10.5799 9.9187,16.5311 -1.1903,0.9258 -0.4629,2.645 -0.6613,3.9675 l 1.3225,1.3225 1.3225,-1.3225 c 0.5951,-8.7284 -5.6867,-14.5474 -8.5962,-21.8211 8.1994,-6.1496 20.1019,-3.4385 27.1111,-12.5637 6.5463,0 11.4396,0 17.1924,0 l -0.6612,0.6612 c 7.1415,-3.9013 15.8038,-5.4222 20.4986,-13.8861 2.3144,-8.1334 -1.3225,-15.4071 -1.9837,-23.1437 3.9675,-3.3723 7.4059,3.9675 10.5799,-1.3225 5.7529,3.174 9.5881,-2.1821 11.2412,-6.6124 -0.3306,-8.0672 12.8282,-9.3897 8.5962,-17.8537 -9.1252,3.174 -11.0428,14.0184 -18.5149,18.5149 0.0661,0.6613 2.0499,1.1903 1.3225,2.645 -2.5127,3.4385 -7.935,1.8515 -11.2412,1.3225 -0.3967,-0.7935 -1.2563,-0.6613 -1.9837,-0.6613 l -0.6613,0.6613 0.6613,0.6612 c -2.3805,3.4385 -8.7946,1.8515 -12.5637,1.3225 -1.2564,-0.4628 -2.2483,-1.6531 -3.3062,-2.645 2.3143,-8.1994 0.6612,-17.9859 3.9674,-25.7886 1.3225,0.4629 2.2483,1.8515 3.9675,1.3225 1.1903,-0.4628 0.4629,-1.7853 0.6613,-2.645 -2.0499,-0.3967 -3.8352,-1.5208 -5.29,-3.3062 0.9919,-5.819 2.9095,-11.3073 -0.6612,-16.5312 -0.4629,-3.1078 1.1241,-7.0092 -1.3226,-9.2574 5.4223,-5.5545 13.4234,-4.8271 18.515,-11.2412 10.5799,-5.819 21.3582,-13.8862 29.0948,-23.8049 -9.1252,7.5382 -19.1761,14.4152 -27.7724,21.8211 -7.3398,2.5789 -12.9604,9.4559 -21.1598,9.9187 -4.8933,-5.356 -7.4721,-11.6379 -11.9025,-17.1924 8.3979,-3.4384 18.0521,-3.8352 26.4499,-7.2737 l 0,-0.6612 c -9.0591,2.1821 -18.5149,3.4385 -27.1111,6.6124 -6.5464,-3.4384 -11.0428,-11.7701 -17.8537,-14.5474 l -1.9837,-1.9837 c 23.1436,-2.645 45.8905,-8.2656 69.4309,-7.935 l 1.9837,-1.9837 c -25.2596,0.6612 -48.5355,6.2818 -73.3984,7.9349 -2.7111,-1.7192 -7.2737,-3.3062 -7.2737,-7.2737 11.9025,-9.1913 26.516,-11.77016 39.6748,-17.85363 7.0092,-2.71111 15.1426,-2.57887 21.8212,-5.95122 l -0.6613,-0.66125 c -23.342,3.04174 -43.3778,13.9523 -64.1409,23.14363 -1.9176,-3.57073 -8.0672,-4.43035 -6.6125,-8.5962 14.5474,-14.41518 26.2515,-30.02059 33.0624,-47.60976 -3.703,5.8851 -5.9513,12.36531 -10.58,17.85366 l -0.6612,-0.66125 C 244.2428,53.40705 247.6151,45.47209 248.078,38 c -4.9594,14.54742 -9.9187,29.09485 -21.1599,40.99729 -3.5707,2.51274 -8.2656,8.00108 -13.225,9.9187 -7.2737,-2.77723 -13.7539,-8.72846 -19.1761,-14.54743 l -0.6612,0.66125 c -7.935,-6.21572 -8.0673,-15.73767 -13.225,-23.14363 l -0.6612,-4.62873 c -1.9838,0.46288 -4.761,-1.12411 -5.9512,1.32249 -1.8515,6.81085 0.1983,13.62169 3.3062,19.17616 -0.4629,5.42222 -7.6043,3.17398 -11.2412,5.28997 -7.0092,4.8271 -14.6797,5.28997 -19.8374,13.22493 l 1.3225,1.3225 c -4.5626,0.33062 -7.0754,6.74471 -10.58,9.25744 -0.2644,-3.5046 -4.2319,-3.70298 -5.9512,-6.61246 7.1415,-4.49648 7.2076,-12.03468 13.225,-16.53117 -0.1323,-1.65311 1.1241,-2.77723 0.6612,-4.62872 -5.819,-1.91761 0.1984,-7.47209 -2.645,-11.24119 -2.3805,-2.51274 -5.29,-0.39675 -7.9349,0 0.1983,0.59512 -0.3307,0.92574 -0.6613,1.32249 1.9838,-1.45474 4.8271,-2.84336 7.2737,-1.32249 l 0.6613,0.66125 c -3.9675,0.33062 -7.4721,1.65311 -10.58,3.96748 -4.5626,-0.72738 -6.6124,6.67858 -11.2412,3.96747 -7.1414,3.76911 -16.5311,2.18212 -23.1436,7.27371 -6.21572,-7.07533 -14.34905,-15.07642 -19.83739,-22.48238 -1.19025,0.46288 -0.46288,1.78537 -0.66125,2.64499 7.27371,4.2981 13.22493,13.22493 19.17615,19.17615 -1.78536,2.18211 -4.49648,3.43848 -5.28997,6.61247 C 83.03082,75.36044 81.11321,68.61572 75.49261,63.78862 74.633,62.929 75.02974,60.35014 72.84763,61.14363 l -0.66125,0.66125 c -4.43035,-2.44662 -7.40596,3.96747 -10.57995,5.28997 -3.43848,1.52087 -2.64498,5.95122 -4.62872,8.59621 2.31436,0.85961 5.75285,0.33062 6.61247,3.30623 -2.90949,1.85149 -10.57995,-4.16585 -9.91871,2.64498 l 0,2.64499 1.98375,-3.96748 c 1.52086,1.12412 5.09159,0.19838 4.62872,3.30623 l -0.66124,0.66125 c -0.39675,-0.79349 -1.25637,-0.66125 -1.98375,-0.66125 -0.79349,3.50461 6.74472,3.43849 2.64499,6.61247 l -1.98374,0 c 3.37236,2.57886 4.5626,6.01734 7.93496,8.59621 -0.85962,2.77721 -4.09973,6.28181 -6.61246,6.61251 l -1.98375,0 c 0.06613,2.6449 -3.04173,0.3306 -3.96748,1.9837 -2.57886,-2.0499 -4.23197,2.2482 -6.61246,2.645 1.52087,0.9918 2.18211,-1.9838 3.30623,0 0.529,1.6531 -1.45474,2.9095 -2.64498,3.3062 l -1.98374,-1.3225 c -0.529,7.0092 6.81084,13.225 1.32249,19.8374 -0.7935,4.6287 1.52087,8.7285 0.66125,12.5637 -1.52087,0.529 -2.18212,-0.8596 -3.30624,-1.3225 0.19838,0.5951 -0.33062,0.9258 -0.66124,1.3225 0.72737,2.0499 2.90948,0.5951 3.96748,1.9837 -0.33063,0.3968 -0.85962,0.7274 -0.66125,1.3225 0.92575,0.2645 1.32249,-0.8596 1.98374,-1.3225 l 1.98374,2.645 c 0.13225,2.116 -0.46287,6.1496 0.66125,8.5962 -4.03361,1.8515 -1.91762,5.1578 0,7.2738 5.55447,5.2899 12.43143,9.3235 20.49864,6.6124 -2.18212,-1.9176 -4.69485,-0.2645 -6.61247,-0.6612 -5.02547,0.529 -10.64606,-2.8434 -13.88617,-7.2737 -0.19838,-0.5952 0.33062,-0.9258 0.66124,-1.3225 1.25637,-0.3968 1.85149,0.5951 2.64499,1.3225 l 0,0.6612 c 0.59512,0.1984 0.92575,-0.3306 1.32249,-0.6612 1.25637,1.7853 3.10786,2.1821 4.62873,3.3062 -2.44661,-0.8596 -5.42222,-3.2401 -5.95122,-5.9512 1.12412,-0.9919 3.50461,-0.9919 4.62873,0 l 0.66124,0.6612 c 1.19025,-2.9756 4.43035,0 6.61247,0 1.71924,0 1.058,1.6531 2.64499,1.9838 0.39674,-0.7935 1.25637,-0.6613 1.98373,-0.6613 2.90949,1.2564 1.65312,4.232 1.98374,6.6125 l 1.3225,-1.3225 c 1.38862,4.8932 7.20759,8.9929 10.57995,11.9024 l -3.30624,2.645 -1.98374,-3.9675 c -1.58699,-1.3886 0.529,-0.0661 0,0.6613 l 0.66125,0.6612 -0.66125,0.6613 c 0.85962,0.3967 0.66125,1.2563 0.66125,1.9837 -1.78537,0.1984 -3.50461,2.4466 -5.28998,0.6613 -0.13224,-1.1903 -2.18211,-0.4629 -3.30623,-0.6613 l -3.30623,3.3062 c 1.32249,0.8597 0.33062,2.3144 0,3.3063 -1.12412,0.8596 -1.91762,2.4466 -3.30624,2.6449 -1.98373,-1.1241 0.99188,-1.7853 0,-3.3062 l 1.98375,-1.9837 c -0.39676,0.3306 -0.72738,0.8596 -1.3225,0.6612 l -0.66125,-0.6612 c 1.71925,-1.6531 -0.85962,0.529 0,1.3225 l -1.32249,1.3225 c -3.10786,-2.3805 -8.3317,-5.8851 -5.28997,-10.58 1.12412,-0.4628 1.78536,-1.8515 3.30623,-1.3225 l 0,-0.6612 c -3.04173,-1.1903 -3.24011,1.7854 -4.62873,3.3062 -0.13224,3.174 0.85963,6.0174 3.30624,8.5962 1.12412,0.1984 2.64499,-0.529 3.30623,0.6613 -1.12412,0.6612 -1.65312,2.7111 -3.30623,1.9837 l -0.66125,-0.6612 c -2.31436,1.6531 2.64499,2.8433 0,4.6287 l -6.61247,-1.9838 c 1.19025,-0.0661 1.78537,1.3225 2.64499,1.9838 l -1.32249,1.3225 c -0.92574,0 -4.36423,0 -5.28998,0 -0.79349,0.3967 -0.66124,1.2564 -0.66124,1.9837 3.76911,-2.3143 9.19133,-0.6612 12.56368,-3.9675 2.11599,0.3307 2.18212,2.645 3.30624,3.9675 l -0.66125,0.6613 c 1.12412,2.7772 3.30624,5.9512 2.64499,8.5962 l -2.64499,-1.9838 -1.32249,1.3225 c 2.51274,1.3225 3.24011,4.6288 3.96748,7.2737 -0.19837,3.7692 -5.42222,8.464 -0.66125,11.2412 l 0.66125,0.6613 -0.66125,0.6612 c 0.46288,2.7111 4.09973,0.3306 5.28997,1.3225 l 0,-0.6612 c -1.91761,0.3306 -2.38048,0.2645 -3.96747,-0.6613 -0.19838,-0.5951 0.33062,-0.9257 0.66124,-1.3225 -0.92574,0.2645 -1.32249,-0.8596 -1.98374,-1.3225 -0.79349,-3.769 1.19025,-6.414 2.64499,-9.2574 0.99187,0.1322 1.52087,-1.1241 2.64498,-0.6613 l 0.66125,0.6613 c -1.12412,-1.587 -1.12412,-2.3805 0,-3.9675 1.52086,-0.529 2.18211,0.8596 3.30623,1.3225 -0.59512,-1.7853 -2.84336,-2.9095 -1.98374,-5.29 0.39675,-0.3306 0.72737,-0.8596 1.3225,-0.6612 0.46287,0.6612 1.58699,1.058 1.32249,1.9837 1.58699,-1.1241 -0.529,-3.8352 1.98374,-4.6287 l 1.32249,1.3225 c -0.19837,-0.5951 0.33063,-0.9258 0.66125,-1.3225 1.12412,0.1984 2.64499,-0.529 3.30623,0.6612 -0.85961,0.7935 -0.85961,1.9838 -1.98374,2.645 -0.39674,-0.3306 -0.72737,-0.8596 -1.32249,-0.6612 2.64499,3.3723 -2.64498,9.1913 1.98374,12.5637 l 7.27371,5.9512 c -0.85962,0.6612 -1.45474,2.0499 -2.64499,1.9837 0,0.7274 -0.13225,1.587 0.66125,1.9838 0.66125,-1.1241 0.59512,-2.5128 1.98374,-3.3063 1.58699,-0.0661 2.90949,0.5951 3.96749,1.9838 -2.9095,1.1902 -4.43036,5.819 -7.93496,2.645 l -0.66125,0 c 1.65311,2.4466 2.31436,6.1496 1.98373,8.5962 l 1.3225,0 c -0.46287,-2.4466 -1.85149,-5.29 -1.3225,-7.2737 5.48835,-1.6532 2.64499,4.7609 5.28998,6.6124 -0.46287,1.1903 -1.78536,0.4629 -2.64499,0.6613 -0.19837,1.3225 0.529,3.0417 -0.66125,3.9675 -2.4466,-0.9919 -0.72737,1.9837 -1.98374,2.6449 l -3.30623,1.3225 c 4.82711,1.3886 6.1496,6.5464 7.27372,10.58 -0.39676,0.3306 -0.72737,0.8596 -1.3225,0.6612 l -1.32249,-1.3225 c 0.19838,1.1242 -0.52899,2.645 0.66124,3.3063 l -5.28997,1.9837 c 1.58699,0.1323 3.24011,-1.5209 4.62873,0 l -0.66125,0.6613 2.64499,2.6449 -0.66125,0.6613 c -0.46287,-1.1903 -1.78536,-0.4629 -2.64499,-0.6613 l -0.66124,0.6613 c -1.85149,-2.3144 -5.28997,-3.6369 -8.5962,-3.9675 l 1.98373,1.3225 c -0.92574,1.1903 -2.64498,0.4629 -3.96748,0.6612 3.04174,1.1242 7.20759,3.4385 9.91871,1.3225 -0.13226,3.703 5.48834,3.3063 4.62872,7.2738 l 1.32249,1.3224 c 0.33062,-1.5869 -1.65311,-2.9095 0.66125,-3.9674 -0.59512,-0.1984 -0.92575,0.3306 -1.32249,0.6612 -1.12412,-0.9257 -0.39676,-2.5789 -1.98375,-3.3062 1.3225,-0.9919 3.96749,-0.9919 5.28997,0 1.19025,1.1241 0.46289,3.1078 0.66125,4.6287 0.85963,0.1984 2.18212,-0.529 2.64499,0.6613 -0.19837,-1.5871 -2.44661,-2.3805 -2.64499,-3.9675 l 1.3225,-1.3225 c 0.39675,0.3306 0.72737,0.8596 1.32249,0.6612 l -0.66125,-0.6612 0.66125,-0.6613 c -0.99187,-0.6612 -3.24011,-1.1241 -3.30624,-3.3062 l 1.3225,-1.9838 3.96748,3.9675 -0.66124,0.6613 2.64495,0 -1.32246,-1.3225 c 0.66126,-1.1903 2.18216,-0.4629 3.30626,-0.6613 -1.7854,-2.8433 -6.0835,0.1984 -7.93499,-2.645 1.058,-0.9257 3.24011,-0.9918 3.96748,-0.6612 l 0,0.6612 c 1.52091,0.5291 2.18211,-0.8596 3.30621,-1.3224 1.7854,1.9837 3.1079,-0.9919 5.29,0 -2.1821,-0.9258 -4.8271,-0.6613 -6.6125,-2.645 2.4466,-1.7854 4.8271,0.4629 7.2737,0.6612 -1.4547,-1.7853 -4.0997,-0.7935 -5.2899,-3.3062 -0.9258,1.1241 -2.9756,0.7935 -3.96751,0 l 1.98371,1.3225 c -0.4628,1.1902 -1.78534,0.4629 -2.64495,0.6612 -4.29811,-1.3225 -1.45475,-7.4059 -6.61247,-6.6124 0.06612,-1.4548 -0.33063,-3.1079 1.3225,-3.9675 1.52086,1.1902 2.77723,1.2563 4.62872,0.6612 -0.13225,-2.5127 -3.90136,-1.7853 -3.30624,-4.6287 2.44662,-0.1322 3.70298,-3.1079 6.61244,-1.9837 l 0,-0.6613 c -1.1241,1.1903 -3.10783,0.4629 -4.6287,0.6613 -0.66124,-0.8597 -2.04986,-1.4548 -1.98374,-2.645 l 0.66125,-0.6613 c -0.72737,0.6613 -3.96748,-0.7274 -4.62872,-3.3062 -0.59513,-2.5789 0.72737,-4.3642 2.64499,-5.9512 0.72736,0 1.58699,0.1984 1.98373,-0.6613 -1.52086,-0.9257 -3.5046,-0.6612 -4.62872,-2.645 0.39674,-0.7934 1.25637,-0.6612 1.98374,-0.6612 l 0,-1.3225 c -2.44661,4.4965 -6.14959,0.1323 -8.59621,-1.3225 -2.04986,-3.174 -4.36423,-6.4802 -2.64499,-10.5799 2.11599,-2.3805 4.56261,2.4466 7.27371,2.6449 l 0.66125,0.6613 c -0.33062,-2.9756 -8.79458,-3.174 -5.28997,-7.2737 5.02548,3.5707 9.72033,7.8027 15.86992,8.5962 l 0,-0.6613 c -0.59512,-0.1983 -0.92575,0.3307 -1.32249,0.6613 -2.51274,-2.116 1.85145,-1.1903 1.32249,-3.3062 l -1.32249,-1.3225 c -0.19838,0.8596 0.529,2.1821 -0.66125,2.6449 -3.10786,0.9919 -4.69485,-1.5208 -6.61247,-3.3062 -0.19837,-0.5951 0.33062,-0.9257 0.66125,-1.3225 2.18211,-0.529 3.50461,0.8597 5.28997,1.3225 -1.19024,-2.5127 -7.40596,-0.1322 -6.61246,-4.6287 1.78537,-3.174 3.96747,0.529 6.61246,-0.6613 l -1.32249,-1.3225 c 1.52087,-1.7853 3.10786,0.4629 4.62874,0.6613 4.1658,1.5209 1.2564,5.8851 3.9675,7.935 0.1322,-1.587 -1.5209,-3.2401 0,-4.6288 1.8515,0.1323 1.7853,2.1822 2.645,3.3063 -1.9177,-3.7691 -3.9675,-5.7529 -6.6125,-9.2575 -0.1984,0.5951 0.3306,0.9258 0.6612,1.3225 -2.84333,1.3225 -5.28994,-2.3144 -8.59617,-1.9837 -0.529,-1.9176 1.78537,-2.645 2.64498,-3.9675 0.59512,-0.1984 0.92575,0.3306 1.32249,0.6612 1.52087,-3.6368 -2.38048,-2.7772 -3.96747,-3.9675 l -0.66125,-0.6612 c 0.39674,-0.3306 0.72737,-0.8596 1.3225,-0.6613 l -1.3225,-1.3224 c 1.25637,-1.7854 2.38049,0.5951 3.96748,0 -0.19838,-2.116 -5.42222,-1.058 -3.30623,-3.9675 l 3.30623,0.6612 c -0.46287,-0.6612 -1.58699,-1.058 -1.3225,-1.9837 0.92575,-1.1903 2.64499,-0.4629 3.96749,-0.6613 1.71925,1.1242 1.65315,-1.8514 3.96745,-1.3224 0.2645,-0.9258 -0.8596,-1.3225 -1.3225,-1.9838 2.2483,-1.8515 5.29,-1.7853 7.935,-2.645 5.4883,8.8607 5.0916,20.2342 10.5799,29.0949 0.3968,5.4222 3.3063,9.1252 2.645,14.5474 4.4965,1.6531 -0.8596,6.6786 4.6287,7.935 2.645,0.2645 4.761,1.7853 6.6125,3.9674 1.5209,3.7691 -0.4629,8.3318 2.645,10.58 3.3062,0.3306 6.1496,1.6531 8.5962,3.9675 3.9014,8.6623 -7.6043,10.9105 -9.9187,17.8536 -2.4466,6.7447 4.0997,10.3155 4.6287,15.2087 l 0.6613,-0.6613"/><path id="path3565" fill="#000" fill-opacity="1" fill-rule="nonzero" stroke="none" d="m 80.78259,274.065 -1.98375,0.6613 1.98375,0 0,-0.6613"/><path id="path3567" fill="#000" fill-opacity="1" fill-rule="nonzero" stroke="none" d="m 94.00751,274.065 c -0.39674,-0.3306 -0.72736,-0.8596 -1.32248,-0.6612 l 0.66125,1.3225 0.66123,-0.6613"/><path id="path3569" fill="#000" fill-opacity="1" fill-rule="nonzero" stroke="none" d="m 88.71754,272.0813 c -2.38048,-0.9919 -4.69484,-2.1821 -7.27371,-2.645 0.46288,2.8434 4.43035,2.7773 7.27371,2.645"/><path id="path3571" fill="#000" fill-opacity="1" fill-rule="nonzero" stroke="none" d="m 92.68503,271.42 0.991867,0 0,0.99188 -0.991867,0 0,-0.99188 z"/><path id="path3573" fill="#000" fill-opacity="1" fill-rule="nonzero" stroke="none" d="m 76.81511,268.7751 0,0.6612 0.66125,0 -0.66125,-0.6612"/><path id="path3575" fill="#000" fill-opacity="1" fill-rule="nonzero" stroke="none" d="m 64.91267,264.8076 0.66124,1.3225 0,-0.6613 -0.66124,-0.6612"/><path id="path3577" fill="#000" fill-opacity="1" fill-rule="nonzero" stroke="none" d="m 68.2189,263.4851 0.66125,0.6612 0.66125,-0.6612 -1.3225,0"/><path id="path3579" fill="#000" fill-opacity="1" fill-rule="nonzero" stroke="none" d="m 75.49261,262.8239 c -6.28184,-0.0662 -10.64607,-4.6288 -15.86991,-7.2738 2.44661,1.2564 1.52086,7.0754 5.28997,4.6288 3.10786,1.8515 7.07534,1.7853 10.57994,2.645"/><path id="path3581" fill="#000" fill-opacity="1" fill-rule="nonzero" stroke="none" d="m 56.31646,255.5501 c 0.19838,3.0418 1.98374,3.703 3.96748,5.9512 -0.59512,-2.2482 -2.38049,-4.6948 -3.96748,-5.9512"/><path id="path3583" fill="#000" fill-opacity="1" fill-rule="nonzero" stroke="none" d="m 51.68774,250.9214 c -0.13225,3.6369 1.32249,4.8932 2.64498,7.935 l -2.64498,-7.935"/><path id="path3585" fill="#fff" fill-opacity="1" fill-rule="nonzero" stroke="none" d="m 93.34628,254.2276 -1.3225,0 c 0.06612,3.0418 3.90135,0.9258 3.96748,3.9675 0.529,-1.9176 -1.78537,-2.645 -2.64498,-3.9675"/><path id="path3587" fill="#fff" fill-opacity="1" fill-rule="nonzero" stroke="none" d="m 217.6606,254.8889 c -0.8596,-0.1984 -2.1821,0.529 -2.645,-0.6613 2.3144,-2.4466 -1.3225,-5.7528 -1.9837,-8.5962 -1.3225,-6.6124 -9.4558,-13.7539 -2.645,-20.4986 4.4304,0 -0.1322,3.5707 1.3225,5.9512 0.1984,7.2076 4.4304,12.7621 6.6125,19.1762 1.5209,0.9918 2.1821,-1.9838 3.3062,0 -0.3306,0.3967 -0.8596,0.7273 -0.6612,1.3225 1.8515,-0.3968 4.0997,-1.1903 4.6287,-3.3063 5.6867,0.1323 11.4396,0.1984 15.8699,-2.645 0.3306,0.3968 0.8596,0.7274 0.6613,1.3225 l -0.6613,0.6613 c 3.8353,-0.529 5.0255,-3.3724 8.5962,-4.6287 -2.8433,-1.3887 -3.7691,-5.8852 -4.6287,-9.2575 l 1.3225,-1.3225 0.6612,0.6612 c 0.3968,-0.7934 1.2564,-0.6612 1.9838,-0.6612 -0.2645,-0.9257 0.8596,-1.3225 1.3225,-1.9837 1.1241,5.5544 6.0834,8.9268 10.5799,11.9024 6.4141,-1.6531 13.5556,-1.5209 18.5149,-6.6125 -0.7274,0 -1.587,-0.1322 -1.9837,0.6613 -1.058,-2.5789 -2.5789,-0.1984 -3.9675,0 -5.4883,0.8596 -12.6959,1.7853 -16.5312,-3.3063 -2.645,-2.0498 -3.3062,-5.7528 -1.9837,-8.5962 3.3062,-5.3561 7.6043,-11.9024 3.9675,-18.5149 -0.3968,0.8597 -1.2564,0.6613 -1.9838,0.6613 -1.1241,-1.587 -1.1241,-2.3805 0,-3.9675 -8.1333,-5.6206 -18.8455,-7.7366 -28.4336,-11.2412 -16.7295,-5.29 -34.3848,-8.3978 -53.5609,-7.9349 -0.9919,6.943 -5.5545,12.4975 -7.2738,19.1761 -7.5382,7.8027 -20.5647,6.4141 -30.4173,4.6287 -11.7041,-4.0997 -17.523,-16.3328 -18.5149,-27.7723 -0.9258,-2.4466 -3.5046,-0.8596 -5.29,-1.3225 -2.4466,5.4883 1.4548,11.5718 2.645,17.1924 2.2482,5.5545 3.174,11.704 7.2737,16.5312 2.1821,-0.6613 4.0336,0.8596 4.6287,2.6449 -0.5951,2.5789 0.7274,4.3643 2.645,5.9513 -1.587,1.9837 -5.4222,1.2563 -5.2899,4.6287 0.3967,4.761 6.4802,4.0997 9.2574,7.2737 5.7528,2.7111 0.7935,12.1008 7.935,11.9024 -0.3968,-1.9837 0.4628,-3.4384 1.9837,-4.6287 1.1903,0.4629 0.4629,1.7854 0.6612,2.645 l 2.645,-2.645 1.3225,1.3225 -1.9837,2.645 c 1.1902,0.0661 1.7854,-1.3225 2.645,-1.9837 -1.1903,-0.4629 -0.4629,-1.7854 -0.6613,-2.645 l 0.6613,-0.6613 c 3.9675,3.9675 6.2818,12.2331 13.2249,13.225 0.1984,0.5951 -0.3306,0.9257 -0.6612,1.3225 3.1078,1.3224 8.7284,0.1983 13.8861,1.3224 4.8271,-1.1241 10.5139,-0.1983 14.5475,-3.3062 2.1821,0.7935 5.1577,-0.3967 7.9349,0 5.4884,0.1323 10.1171,2.1821 15.2087,3.3062 -0.7274,0.8597 -1.7192,0.9919 -2.645,1.3225 1.587,0.7935 4.8271,1.5209 5.9512,-0.6612"/><path id="path3589" fill="#000" fill-opacity="1" fill-rule="nonzero" stroke="none" d="m 69.5414,255.5501 c -2.3805,0.9919 -3.96749,-1.9837 -5.95122,0 l 5.95122,0"/><path id="path3591" fill="#000" fill-opacity="1" fill-rule="nonzero" stroke="none" d="m 109.2162,253.5664 0.6612,-0.6612 -1.3225,-1.3225 c 0.3307,0.3967 0.8597,0.7273 0.6613,1.3225 -2.3805,0.5951 -4.6949,-2.7112 -7.935,-1.9838 2.7773,1.3886 5.3561,3.0418 8.5962,3.3062 l -0.6612,-0.6612"/><path id="path3593" fill="#000" fill-opacity="1" fill-rule="nonzero" stroke="none" d="m 115.1674,252.9052 -1.9837,0 c 0.6612,0.4628 1.058,1.5869 1.9837,1.3224 l 0,-1.3224"/><path id="path3595" fill="#fff" fill-opacity="1" fill-rule="nonzero" stroke="none" d="m 207.0807,253.5664 0,0.6612 0.6612,0 -0.6612,-0.6612"/><path id="path3597" fill="#000" fill-opacity="1" fill-rule="nonzero" stroke="none" d="m 88.0563,252.9052 0,-0.6613 -1.3225,1.3225 c 0.59513,0.1984 0.92575,-0.3306 1.3225,-0.6612"/><path id="path3599" fill="#000" fill-opacity="1" fill-rule="nonzero" stroke="none" d="m 184.5983,250.9214 -8.5962,1.3225 0,0.6613 c 3.3062,0.3306 6.1496,-0.3307 8.5962,-1.9838"/><path id="path3601" fill="#000" fill-opacity="1" fill-rule="nonzero" stroke="none" d="m 82.76633,250.2602 c -1.58699,0.2645 -2.38049,-3.5708 -3.96749,-1.3225 1.3225,0.4628 2.3805,1.587 3.96749,1.3225"/><path id="path3603" fill="#fff" fill-opacity="1" fill-rule="nonzero" stroke="none" d="m 236.1755,249.5989 1.9838,-0.6612 -1.9838,0.6612"/><path id="path3605" fill="#fff" fill-opacity="1" fill-rule="nonzero" stroke="none" d="m 88.71754,247.6152 0,1.3225 0.66125,-0.6613 -0.66125,-0.6612"/><path id="path3607" fill="#000" fill-opacity="1" fill-rule="nonzero" stroke="none" d="m 110.5387,247.6152 c 0.4629,1.1902 1.7854,0.4628 2.645,0.6612 -4.761,0.6613 -7.5382,-3.6368 -11.9025,-3.9675 0.8597,1.3225 5.7529,2.645 8.5962,3.9675 l 0.6613,-0.6612"/><path id="path3609" fill="#000" fill-opacity="1" fill-rule="nonzero" stroke="none" d="m 115.1674,247.6152 -0.6612,0.6612 1.3225,0 -0.6613,-0.6612"/><path id="path3611" fill="#000" fill-opacity="1" fill-rule="nonzero" stroke="none" d="m 122.4411,248.2764 -0.6612,-3.3062 0.6612,3.3062"/><path id="path3613" fill="#000" fill-opacity="1" fill-rule="nonzero" stroke="none" d="m 77.47636,245.6314 c -1.78537,-0.1983 -5.68673,0.529 -7.93496,-0.6612 -5.15773,0.1984 -6.6786,-5.4884 -11.2412,-5.29 -0.46287,-1.7853 -1.52086,-2.8433 -3.30623,-3.3062 4.36423,3.7691 8.66233,7.6043 13.88618,9.2574 2.44661,-0.7934 5.28997,1.4548 8.59621,0.6613 l 0,-0.6613"/><path id="path3615" fill="#000" fill-opacity="1" fill-rule="nonzero" stroke="none" d="m 81.44383,244.9702 c -1.25636,-0.6613 -2.38048,-1.4547 -3.96747,-1.3225 0.92574,0.3306 1.91761,0.4629 2.64498,1.3225 l -1.3225,1.3225 c 0.92575,-0.3306 1.91762,-0.4629 2.64499,-1.3225"/><path id="path3617" fill="#000" fill-opacity="1" fill-rule="nonzero" stroke="none" d="m 63.59018,245.6314 0.991871,0 0,0.99187 -0.991871,0 0,-0.99187 z"/><path id="path3619" fill="#000" fill-opacity="1" fill-rule="nonzero" stroke="none" d="m 242.1268,245.6314 0.99187,0 0,0.99187 -0.99187,0 0,-0.99187 z"/><path id="path3621" fill="#000" fill-opacity="1" fill-rule="nonzero" stroke="none" d="m 58.96145,244.3089 0.991871,0 0,0.99187 -0.991871,0 0,-0.99187 z"/><path id="path3623" fill="#000" fill-opacity="1" fill-rule="nonzero" stroke="none" d="m 86.07256,242.3252 -0.66124,-0.6612 c -0.39676,0.3306 -0.72738,0.8596 -1.3225,0.6612 0.39675,0.8596 1.58699,0.8596 1.98374,0"/><path id="path3625" fill="#000" fill-opacity="1" fill-rule="nonzero" stroke="none" d="m 71.52513,241.664 c 0.66125,1.1902 2.18211,0.4628 3.30624,0.6612 l -5.28997,-2.645 c -0.59513,0.1323 -1.65312,2.0499 -0.66125,2.645 0.85962,-0.1984 2.18211,0.529 2.64498,-0.6612"/><path id="path3627" fill="#000" fill-opacity="1" fill-rule="nonzero" stroke="none" d="m 111.1999,241.664 0.99187,0 0,0.99187 -0.99187,0 0,-0.99187 z"/><path id="path3629" fill="#000" fill-opacity="1" fill-rule="nonzero" stroke="none" d="m 110.5387,241.0027 c -1.6531,0.1323 -2.7772,-1.1241 -4.6287,-0.6612 1.9837,-0.7935 2.6449,1.4547 4.6287,0.6612"/><path id="path3631" fill="#000" fill-opacity="1" fill-rule="nonzero" stroke="none" d="m 113.8449,238.3577 3.3062,2.645 -2.6449,-2.645 -0.6613,0"/><path id="path3633" fill="#000" fill-opacity="1" fill-rule="nonzero" stroke="none" d="m 60.94519,236.374 c -0.72737,2.2482 1.12412,1.7192 1.98374,3.3062 l 0.66125,-0.6612 -2.64499,-2.645"/><path id="path3635" fill="#000" fill-opacity="1" fill-rule="nonzero" stroke="none" d="m 66.23516,233.729 -1.98374,0.6612 1.98374,3.3063 c 0.59512,-1.587 -1.78536,-2.7111 0,-3.9675"/><path id="path3637" fill="#000" fill-opacity="1" fill-rule="nonzero" stroke="none" d="m 275.8503,237.6965 0.99185,0 0,0.99187 -0.99185,0 0,-0.99187 z"/><path id="path3639" fill="#000" fill-opacity="1" fill-rule="nonzero" stroke="none" d="m 60.28394,234.3902 -1.32249,-2.6449 1.98374,-1.3225 1.32249,1.9837 c 2.51274,-0.9919 3.37236,-2.9095 1.98374,-5.29 l -1.98374,-1.9837 c 1.38862,1.4547 1.3225,3.5046 1.98374,5.29 l -0.66124,0.6612 c -2.51274,-1.5209 -3.83524,-5.819 -6.61247,-6.6125 1.78537,1.8515 4.8271,3.9675 2.64499,6.6125 l -0.66125,0.6613 c -4.2981,-2.3144 -4.62873,-8.5963 -9.9187,-9.9187 5.22385,3.1078 8.13333,8.9268 10.57995,13.2249 l 0.66124,-0.6613"/><path id="path3641" fill="#000" fill-opacity="1" fill-rule="nonzero" stroke="none" d="m 47.05901,231.084 -2.64499,-3.9675 2.64499,3.9675"/><path id="path3643" fill="#000" fill-opacity="1" fill-rule="nonzero" stroke="none" d="m 47.72026,221.8266 -0.66125,-0.6613 -0.66125,0.6613 c -0.39675,-0.3307 -0.72737,-0.8597 -1.32249,-0.6613 l 3.96748,7.935 c -0.46287,-2.4466 -4.16585,-5.1577 -1.32249,-7.2737"/><path id="path3645" fill="#fff" fill-opacity="1" fill-rule="nonzero" stroke="none" d="m 266.5929,226.4553 c -1.4547,-3.3063 2.1821,-6.0835 4.6287,-8.5962 l 1.3225,0 c -1.6531,-4.5626 -5.4883,-8.1995 -9.2574,-11.9025 0,5.4884 2.9756,11.4396 0,16.5312 1.5208,1.1241 0.1322,3.174 -1.3226,3.3062 0.7274,1.6531 3.1741,2.5789 4.6288,0.6613"/><path id="path3647" fill="#000" fill-opacity="1" fill-rule="nonzero" stroke="none" d="m 79.46009,224.4715 0.66125,-0.6612 -0.66125,0.6612"/><path id="path3649" fill="#000" fill-opacity="1" fill-rule="nonzero" stroke="none" d="m 82.10508,224.4715 0.991867,0 0,0.99187 -0.991867,0 0,-0.99187 z"/><path id="path3651" fill="#fff" fill-opacity="1" fill-rule="nonzero" stroke="none" d="m 271.8828,219.8428 -0.6612,1.3225 0.6612,-0.6612 0,-0.6613"/><path id="path3653" fill="#000" fill-opacity="1" fill-rule="nonzero" stroke="none" d="m 53.67147,216.5366 c -0.39674,2.5788 2.64499,2.645 3.96748,3.9675 l -3.96748,-3.9675"/><path id="path3655" fill="#000" fill-opacity="1" fill-rule="nonzero" stroke="none" d="m 62.92893,218.5203 0,1.3225 0.66125,-0.6612 -0.66125,-0.6613"/><path id="path3657" fill="#000" fill-opacity="1" fill-rule="nonzero" stroke="none" d="m 50.36524,218.5203 c -0.39675,-0.3306 -0.72737,-0.8596 -1.32249,-0.6612 0.39675,0.3306 0.72737,0.8596 1.32249,0.6612"/><path id="path3659" fill="#000" fill-opacity="1" fill-rule="nonzero" stroke="none" d="m 99.29749,217.8591 c -6.01734,-0.3306 -11.63794,-1.587 -16.53116,-4.6288 4.95935,4.0998 9.72033,5.8851 16.53116,4.6288"/><path id="path3661" fill="#000" fill-opacity="1" fill-rule="nonzero" stroke="none" d="m 61.60643,215.2141 1.3225,1.9837 0.66125,-0.6612 -1.98375,-1.3225"/><path id="path3663" fill="#fff" fill-opacity="1" fill-rule="nonzero" stroke="none" d="m 123.1024,217.1978 0.99187,0 0,0.99187 -0.99187,0 0,-0.99187 z"/><path id="path3665" fill="#fff" fill-opacity="1" fill-rule="nonzero" stroke="none" d="m 276.5116,217.1978 0.99188,0 0,0.99187 -0.99188,0 0,-0.99187 z"/><path id="path3667" fill="#000" fill-opacity="1" fill-rule="nonzero" stroke="none" d="m 226.2568,212.5691 c 1.5209,-2.4466 2.8434,-5.7528 1.3225,-8.5962 -2.3805,-4.761 -7.9349,-4.4965 -12.5637,-5.29 -3.1078,0.529 -6.414,0.529 -8.5962,3.3063 1.3225,2.9756 4.1659,6.4802 7.2737,9.2574 1.5209,1.5209 1.7854,4.761 4.6288,4.6287 3.0417,-0.1322 5.2899,-2.1821 7.9349,-3.3062"/><path id="path3669" fill="#000" fill-opacity="1" fill-rule="nonzero" stroke="none" d="m 59.6227,215.2141 c -2.90949,-1.7193 -7.40597,-3.9675 -7.93496,-7.2737 l -0.66125,0 c 1.58699,1.7854 -0.72737,6.3479 3.30623,5.9512 1.38862,-0.6613 3.43849,1.1902 5.28998,1.3225"/><path id="path3671" fill="#000" fill-opacity="1" fill-rule="nonzero" stroke="none" d="m 62.26768,211.2466 c -1.98374,-1.1241 -5.81897,-2.116 -7.27371,-4.6287 1.71924,1.8515 4.2981,4.4965 7.27371,4.6287"/><path id="path3673" fill="#fff" fill-opacity="1" fill-rule="nonzero" stroke="none" d="m 66.89641,210.5854 0,0.6612 0.66125,0 -0.66125,-0.6612"/><path id="path3675" fill="#000" fill-opacity="1" fill-rule="nonzero" stroke="none" d="m 58.3002,206.6179 1.3225,0 -1.3225,0"/><path id="path3677" fill="#fff" fill-opacity="1" fill-rule="nonzero" stroke="none" d="m 89.37879,203.9729 -3.30623,0 c -0.7935,2.7111 2.38049,1.3225 3.30623,2.645 l 0,-2.645"/><path id="path3679" fill="#fff" fill-opacity="1" fill-rule="nonzero" stroke="none" d="m 216.9994,204.6341 c -0.5951,-0.1983 -0.9258,0.3307 -1.3225,0.6613 l 0.6612,0.6612 c 0.3307,-0.3967 0.8597,-0.7273 0.6613,-1.3225"/><path id="path3681" fill="#fff" fill-opacity="1" fill-rule="nonzero" stroke="none" d="m 163.4384,197.3604 c -0.8596,-2.2482 1.8515,-1.587 2.645,-2.645 0.0661,-4.8932 3.1079,-9.3235 1.9837,-13.8861 1.4548,-2.1821 3.5046,-4.0998 2.645,-7.2737 6.1496,-4.4965 4.5626,-12.167 7.935,-17.8537 -0.4629,-1.5209 -1.8515,-2.645 -1.3225,-4.6287 0.7935,-1.9176 3.8352,-1.1903 2.645,-3.9675 -1.1241,-0.1984 -2.645,0.529 -3.3063,-0.6613 1.7193,-3.9674 4.232,-7.0753 2.645,-11.9024 l 3.3063,-1.9837 c -0.4629,-1.1903 -1.7854,-0.4629 -2.645,-0.6613 0,0.7274 0.1984,1.587 -0.6613,1.9838 -0.5951,0.1983 -0.9257,-0.3307 -1.3225,-0.6613 1.7193,-1.9837 -1.3225,-3.4385 0.6613,-5.29 4.3642,-3.5046 11.1089,-5.6867 10.5799,-12.5636 -1.6531,0.9918 -3.7691,2.6449 -5.2899,1.9837 2.6449,-4.9594 14.1506,-5.4884 9.9187,-14.5474 -0.3968,0.8596 -1.2564,0.6612 -1.9838,0.6612 l -1.9837,-1.9837 c 0.8596,-1.1241 2.3143,-0.529 3.3062,-1.3225 -2.1821,-2.9095 -5.1577,-6.67861 -8.5962,-7.93498 0.1984,1.3225 2.4466,2.64499 0.6613,3.96748 -1.9177,-6.41409 -9.7204,-6.81084 -15.87,-7.27371 -1.4547,2.90949 -3.7691,0 -5.9512,0.66124 -3.4385,0.72737 -7.0753,0.99188 -9.9187,3.30624 2.3144,2.31436 -1.3225,2.64499 -1.9837,3.96747 -0.3968,-0.79348 -1.2564,-0.66124 -1.9838,-0.66124 -2.3143,2.24824 -0.6612,7.2737 -3.9675,7.935 l 0,2.6449 c 3.0418,-4.6948 8.9269,-8.26553 11.2412,-13.22488 1.8515,1.78537 5.1578,1.65311 5.9513,4.62872 1.2563,-2.44661 3.7029,-1.91762 5.9512,-1.98374 2.645,1.85149 3.4385,4.4965 3.9675,7.2737 -11.4396,7.4721 -10.3816,21.2922 -14.5475,32.4011 -2.8433,8.8607 3.174,20.6309 -2.645,29.0949 -5.0916,0.5289 -8.53,-2.9757 -11.9024,-6.6125 -2.5127,2.8433 -5.29,5.0255 -8.5962,5.9512 -5.819,-5.9512 -2.7772,-17.5891 -2.645,-25.7886 -0.9918,-1.7192 -3.6368,-2.4466 -5.29,-3.9675 -1.1902,1.3225 -0.4628,3.5046 -0.6612,5.29 1.1902,-0.0661 1.7854,1.3225 2.645,1.9837 -0.3968,0.3306 -0.7274,0.8596 -1.3225,0.6613 l -0.6613,-0.6613 -0.6612,0.6613 c 2.9095,-0.6613 2.645,3.5046 3.9675,5.2899 l -0.6613,0.6613 -0.6612,-0.6613 c -0.1984,1.7854 0.529,3.9675 -0.6613,5.29 0.1984,2.5789 -0.8596,6.2818 -3.3062,8.5962 0.7274,0 1.587,-0.1322 1.9837,0.6613 l -1.9837,1.9837 c 0.5951,-0.1984 0.9258,0.3306 1.3225,0.6613 -2.4466,2.7111 -0.8596,5.8189 -1.3225,9.9187 0.7274,0 1.587,-0.1323 1.9837,0.6612 -2.8433,6.6125 2.1822,13.2249 3.3063,19.8374 8.5301,6.6125 24.929,16.2005 33.0623,1.9837"/><path id="path3683" fill="#fff" fill-opacity="1" fill-rule="nonzero" stroke="none" d="m 68.2189,200.6667 c -0.39675,-0.3307 -0.72737,-0.8597 -1.32249,-0.6613 0,0.7274 -0.13225,1.587 0.66125,1.9838 -1.587,0.6612 0.52899,1.0579 0,1.9837 1.19023,-0.6613 0.46287,-2.1821 0.66124,-3.3062"/><path id="path3685" fill="#fff" fill-opacity="1" fill-rule="nonzero" stroke="none" d="m 72.18638,201.3279 0.66125,1.9837 0,-1.3224 -0.66125,-0.6613"/><path id="path3687" fill="#fff" fill-opacity="1" fill-rule="nonzero" stroke="none" d="m 94.00751,203.3116 c -0.39674,-0.7934 -1.25636,-0.6612 -1.98373,-0.6612 0.39674,0.8596 1.25637,0.6612 1.98373,0.6612"/><path id="path3689" fill="#000" fill-opacity="1" fill-rule="nonzero" stroke="none" d="m 64.25142,201.9892 c -1.58699,-1.3887 0.529,-0.0662 0,0.6612 l 0,-0.6612"/><path id="path3691" fill="#fff" fill-opacity="1" fill-rule="nonzero" stroke="none" d="m 86.7338,198.0217 -0.66124,-0.6613 c 1.78537,-1.3225 3.50461,1.3225 5.28997,1.9838 l 0,0.6612 c 1.38862,-0.7935 1.3225,-2.1821 1.98375,-3.3062 -2.44662,-0.6613 -4.29811,-1.6531 -6.61248,0 -0.85962,1.4547 -0.66124,4.4303 -3.30623,3.9675 l 0.66125,1.3225 c 1.65312,-0.9919 3.37235,-1.3887 2.64498,-3.9675"/><path id="path3693" fill="#fff" fill-opacity="1" fill-rule="nonzero" stroke="none" d="m 90.04004,200.6667 c -0.39674,-0.3307 -0.72737,-0.8597 -1.3225,-0.6613 l -0.66124,0.6613 c 0.39675,0.8596 1.587,0.8596 1.98374,0"/><path id="path3695" fill="#fff" fill-opacity="1" fill-rule="nonzero" stroke="none" d="m 266.5929,198.6829 c 2.8433,-10.646 2.7772,-22.4824 2.645,-34.3848 -1.587,-1.9176 -2.4466,-4.0997 -2.645,-6.6125 l -1.3225,1.9838 c -2.645,-7.4721 -2.3144,-16.2006 -7.935,-22.4824 -1.7192,-2.9095 -4.8271,-5.29 -7.2737,-7.935 -2.3144,4.2981 -7.0092,-0.3306 -9.9187,3.9675 -1.5208,-1.7854 -3.1078,0.4629 -4.6287,0.6613 l -1.3225,1.3224 -0.6613,-0.6612 c -16.6634,5.4222 -31.872,14.3491 -48.2709,20.4986 -1.6532,6.5464 -3.3724,13.0927 -9.2575,17.8537 0.6612,3.1079 2.8434,3.8352 5.29,5.29 -1.7854,0.9918 -4.8271,0.9918 -6.6125,0 0.7274,2.645 4.6949,2.9756 7.2737,3.9675 6.348,0.9918 11.9025,-1.9838 17.8537,0 -5.7529,-2.116 -12.7621,-1.1903 -18.5149,-3.3063 l 6.6124,-1.3225 c 10.3816,2.116 21.6228,4.1659 32.4011,3.3063 11.4396,4.2981 21.6228,-2.3144 33.0624,-1.9838 2.9094,-3.1078 7.4721,-2.1821 11.2411,-3.3062 l 1.3225,1.3225 c -4.8932,3.7691 -11.4395,3.5046 -17.1924,5.29 -15.0103,2.9756 -31.2769,2.9756 -46.2872,0 7.4059,3.8352 16.7295,3.0417 24.4661,5.9512 12.4314,3.703 24.7967,7.4059 36.3686,13.2249 1.7853,-0.5951 0.9257,-3.4385 3.3062,-2.645"/><path id="path3697" fill="#fff" fill-opacity="1" fill-rule="nonzero" stroke="none" d="m 74.83137,200.0054 c 0.06612,-1.1902 -1.3225,-1.7854 -1.98374,-2.645 1.05799,-2.5127 2.64498,-0.3967 3.96748,0 l 3.30623,-3.3062 c -0.85962,-0.1984 -2.18212,0.529 -2.64498,-0.6613 1.65311,-1.9176 2.90948,-2.1821 3.30623,-4.6287 2.11598,-0.529 1.19024,3.8353 3.30623,1.3225 -0.33063,-2.3143 -3.37236,-5.3561 -5.28998,-5.29 0.99188,1.1242 0.99188,3.5047 0,4.6288 -1.91761,5.1577 -11.50568,2.116 -8.5962,8.5962 1.19024,1.5208 2.64499,2.3805 4.62873,1.9837"/><path id="path3699" fill="#fff" fill-opacity="1" fill-rule="nonzero" stroke="none" d="m 83.42757,198.0217 0,0.6612 0.66125,0 -0.66125,-0.6612"/><path id="path3701" fill="#000" fill-opacity="1" fill-rule="nonzero" stroke="none" d="m 77.47636,194.0542 -1.98375,1.3225 0.66125,0 1.3225,-1.3225"/><path id="path3703" fill="#fff" fill-opacity="1" fill-rule="nonzero" stroke="none" d="m 90.70129,192.0704 -2.64499,0.6613 1.98374,0 0.66125,-0.6613"/><path id="path3705" fill="#fff" fill-opacity="1" fill-rule="nonzero" stroke="none" d="m 310.2352,192.7317 0.99185,0 0,0.99187 -0.99185,0 0,-0.99187 z"/><path id="path3707" fill="#000" fill-opacity="1" fill-rule="nonzero" stroke="none" d="m 51.68774,192.0704 -3.30624,-3.3062 3.30624,3.3062"/><path id="path3709" fill="#fff" fill-opacity="1" fill-rule="nonzero" stroke="none" d="m 77.47636,187.4417 c -0.33063,-1.9176 -1.91762,-2.116 -2.64499,-3.3062 -2.11599,-0.529 -4.09973,0.7935 -4.62873,2.645 2.71112,2.1821 -2.31436,2.7772 -0.66124,5.2899 3.04173,-0.5289 7.27371,-1.1241 7.93496,-4.6287"/><path id="path3711" fill="#000" fill-opacity="1" fill-rule="nonzero" stroke="none" d="m 58.3002,191.4092 c 1.058,-2.645 -1.58699,-4.3642 -3.30623,-5.29 -1.65312,0.1323 -2.77724,-1.1241 -4.62873,-0.6612 1.65312,2.9756 4.89323,4.9593 7.93496,5.9512"/><path id="path3713" fill="#fff" fill-opacity="1" fill-rule="nonzero" stroke="none" d="m 56.31646,189.4255 c -1.12412,-0.8597 -1.91761,-2.4466 -3.30623,-2.645 0.13225,1.8515 2.18211,1.7853 3.30623,2.645"/><path id="path3715" fill="#fff" fill-opacity="1" fill-rule="nonzero" stroke="none" d="m 87.39505,187.4417 c -0.13225,-1.6531 -3.5046,-1.9837 -1.32249,-3.9674 l -1.98374,0 c -0.33063,1.9176 0.66125,5.0254 3.30623,3.9674"/><path id="path3717" fill="#fff" fill-opacity="1" fill-rule="nonzero" stroke="none" d="m 88.71754,185.458 0.991875,0 0,0.99187 -0.991875,0 0,-0.99187 z"/><path id="path3719" fill="#fff" fill-opacity="1" fill-rule="nonzero" stroke="none" d="m 90.04004,183.4743 0.66125,0.6612 1.98374,-0.6612 -2.64499,0"/><path id="path3721" fill="#000" fill-opacity="1" fill-rule="nonzero" stroke="none" d="m 55.65522,182.1518 c -0.59513,0.1983 -0.92575,-0.3307 -1.3225,-0.6613 l 0,-0.6612 c -1.12412,0.8596 -1.25637,1.4547 -0.66125,2.645 0.92575,0.2645 1.3225,-0.8597 1.98375,-1.3225"/><path id="path3723" fill="#000" fill-opacity="1" fill-rule="nonzero" stroke="none" d="m 154.181,176.8618 c -4.9594,0.5951 -4.761,-7.8027 -9.2575,-3.9675 -1.1241,3.5046 1.7854,5.29 2.645,7.935 1.9837,1.8515 4.8271,1.7853 7.2737,2.645 1.6531,-1.3225 0.2645,-4.6949 -0.6612,-6.6125"/><path id="path3725" fill="#000" fill-opacity="1" fill-rule="nonzero" stroke="none" d="m 141.6173,177.523 c 0.3306,-2.4466 -1.3886,-4.0997 -2.645,-5.9512 -2.7111,3.174 -9.9187,3.9014 -7.935,9.9187 3.8353,3.4385 8.5962,-0.3306 10.58,-3.9675"/><path id="path3727" fill="#000" fill-opacity="1" fill-rule="nonzero" stroke="none" d="m 65.57391,174.8781 -1.32249,1.3224 c 6.21572,-3.3062 9.98482,2.7112 13.88618,5.9513 -2.44661,-3.8353 -7.00921,-8.1334 -12.56369,-7.2737"/><path id="path3729" fill="#000" fill-opacity="1" fill-rule="nonzero" stroke="none" d="m 240.143,176.8618 c 0.6613,-3.1079 -0.7274,-4.8932 -3.3062,-5.9512 l -1.3225,0 c 1.1241,1.5208 3.6369,2.5127 3.3062,4.6287 -2.2482,2.8434 -5.7528,2.7772 -9.2574,2.645 -15.9361,-1.9838 -31.8721,-5.29 -43.6423,-15.8699 8.9268,11.9024 28.3014,14.878 44.3035,17.8536 3.3062,-1.1241 7.4721,-0.1984 9.9187,-3.3062"/><path id="path3731" fill="#000" fill-opacity="1" fill-rule="nonzero" stroke="none" d="m 55.65522,176.8618 -1.3225,0 c 0.13225,0.7935 0.529,2.0499 1.3225,1.9837 l 0,-1.9837"/><path id="path3733" fill="#fff" fill-opacity="1" fill-rule="nonzero" stroke="none" d="m 107.8937,176.8618 0.99187,0 0,0.99187 -0.99187,0 0,-0.99187 z"/><path id="path3735" fill="#000" fill-opacity="1" fill-rule="nonzero" stroke="none" d="m 77.47636,175.5393 0,0.6612 0.66124,0 -0.66124,-0.6612"/><path id="path3737" fill="#fff" fill-opacity="1" fill-rule="nonzero" stroke="none" d="m 119.1349,172.2331 c -2.4466,0.1983 -5.29,-0.529 -7.2737,0.6612 l 0.6612,3.3062 c 1.9838,-1.9176 9.2575,2.116 6.6125,-3.9674"/><path id="path3739" fill="#000" fill-opacity="1" fill-rule="nonzero" stroke="none" d="m 59.6227,174.2168 0,-0.6612 c -1.12412,0.1983 -2.64499,-0.529 -3.30624,0.6612 1.65312,-0.6612 1.91762,1.3225 3.30624,0"/><path id="path3741" fill="#000" fill-opacity="1" fill-rule="nonzero" stroke="none" d="m 75.49261,173.5556 -0.66124,0.6612 0.66124,0 0,-0.6612"/><path id="path3743" fill="#000" fill-opacity="1" fill-rule="nonzero" stroke="none" d="m 54.99397,173.5556 c -2.11599,0.3306 -3.10786,-2.1822 -4.62873,-3.3063 0.85962,1.3886 2.18212,4.2981 4.62873,3.3063"/><path id="path3745" fill="#fff" fill-opacity="1" fill-rule="nonzero" stroke="none" d="m 97.31375,171.5718 c -4.23198,-2.5127 -9.25745,-3.1078 -13.88618,-4.6287 2.11599,6.4802 9.38971,5.1577 13.88618,5.29 l 0,-0.6613"/><path id="path3747" fill="#fff" fill-opacity="1" fill-rule="nonzero" stroke="none" d="m 108.5549,167.6043 c -3.7691,1.5209 -6.0173,-2.3805 -7.9349,-3.9674 -7.27372,-1.9838 -14.54744,-3.9675 -21.82116,-5.9513 l -0.66124,0.6613 c -1.12412,-0.4629 -0.46287,-2.2483 -1.98374,-1.9838 -0.26449,0.9258 0.85962,1.3225 1.3225,1.9838 l -0.66125,0.6612 c 6.81084,7.4721 18.05203,7.0754 27.11109,10.58 l 4.6287,0 0,-1.9838"/><path id="path3749" fill="#fff" fill-opacity="1" fill-rule="nonzero" stroke="none" d="m 119.1349,167.6043 c 0.3306,-10.5799 4.6287,-20.3002 3.9675,-30.4173 -0.1323,-1.8515 -2.1821,-1.7854 -3.3063,-2.645 -2.9756,7.7366 -4.9593,15.8699 -5.9512,24.4661 0.7935,0.8597 1.9838,0.8597 2.645,1.9838 -1.1241,0.4628 -1.7854,1.8515 -3.3062,1.3225 l -1.3225,7.2737 c 2.7772,0.1322 5.4222,0 7.2737,-1.9838"/><path id="path3751" fill="#000" fill-opacity="1" fill-rule="nonzero" stroke="none" d="m 65.57391,168.9268 c 0,-0.7273 0.19838,-1.587 -0.66124,-1.9837 -0.59513,-0.1984 -0.92575,0.3306 -1.32249,0.6612 0.66124,0.4629 1.05799,1.587 1.98373,1.3225"/><path id="path3753" fill="#000" fill-opacity="1" fill-rule="nonzero" stroke="none" d="m 47.72026,161.6531 -0.66125,0 c -0.33062,2.7111 0.2645,5.0255 2.64498,6.6125 -0.19837,-2.3805 -2.24823,-4.0336 -1.98373,-6.6125"/><path id="path3755" fill="#000" fill-opacity="1" fill-rule="nonzero" stroke="none" d="m 56.97771,166.9431 -0.66125,-0.6613 0.66125,0.6613"/><path id="path3757" fill="#fff" fill-opacity="1" fill-rule="nonzero" stroke="none" d="m 105.91,157.0244 c -5.4884,-2.8434 -11.4396,-4.761 -16.53121,-8.5962 -0.26449,1.9176 -1.91762,3.174 -3.30623,4.6287 -4.0336,-1.8515 -5.55447,-4.1658 -7.93496,-7.2737 l 0.66124,-0.6613 -2.64498,-1.9837 c -1.71924,1.1241 -4.5626,-2.5127 -5.95122,1.3225 -0.33062,2.3805 0.33062,4.3642 1.98374,5.9512 l 0.66125,0 c 0.99187,-2.645 -4.95935,-5.4222 0,-6.6124 1.65312,2.6449 2.31436,6.6124 1.98374,9.2574 9.19133,4.1659 19.50677,5.7529 28.43363,10.58 l 5.9512,0.6612 c 2.1821,-2.9756 -0.7935,-6.0173 -3.3062,-7.2737"/><path id="path3759" fill="#000" fill-opacity="1" fill-rule="nonzero" stroke="none" d="m 66.23516,163.6369 0.991867,0 0,0.99187 -0.991867,0 0,-0.99187 z"/><path id="path3761" fill="#fff" fill-opacity="1" fill-rule="nonzero" stroke="none" d="m 154.8422,161.6531 c 1.9837,-15.1425 -2.9756,-29.0948 -5.9512,-42.981 -5.6206,-1.9176 -1.9838,4.6948 -3.9675,6.6125 l 0.6612,1.9837 -1.3224,27.1111 c 1.3886,4.8271 6.5463,6.1496 10.5799,7.2737"/><path id="path3763" fill="#fff" fill-opacity="1" fill-rule="nonzero" stroke="none" d="m 141.6173,155.7019 c 1.4547,-6.1496 -0.1323,-11.0428 1.3225,-17.1924 -0.3307,-0.3968 -0.8597,-0.7274 -0.6613,-1.3225 l 0.6613,-0.6613 c -1.1903,-0.6612 -0.4629,-2.1821 -0.6613,-3.3062 0.1984,-3.1079 -0.529,-8.3317 0.6613,-11.9024 -0.3307,-0.9258 -0.4629,-1.9176 -1.3225,-2.645 -5.4884,-1.5209 -3.1079,4.8271 -4.6288,7.2737 -1.4547,10.9106 -2.4466,22.8791 -1.9837,33.7236 2.7772,0.0661 4.6949,-1.9176 6.6125,-3.9675"/><path id="path3765" fill="#000" fill-opacity="1" fill-rule="nonzero" stroke="none" d="m 47.05901,153.0569 c 0.85962,1.058 0.66125,2.5789 0.66125,3.9675 l -1.3225,1.9837 1.98374,-0.6612 -1.32249,-5.29"/><path id="path3767" fill="#fff" fill-opacity="1" fill-rule="nonzero" stroke="none" d="m 63.59018,157.0244 c 0,-0.7274 -0.13225,-1.587 0.66124,-1.9838 -0.92574,0.2645 -1.32249,-0.8596 -1.98374,-1.3224 -0.19837,-0.5952 0.33062,-0.9258 0.66125,-1.3225 l 0.66125,0.6612 c 0.85962,-0.3967 0.66124,-1.2564 0.66124,-1.9837 -0.66124,-1.1903 -2.18211,-0.4629 -3.30623,-0.6613 l -0.66125,0.6613 c -2.31436,-0.7935 -4.09972,-0.1984 -6.61247,-1.3225 2.24825,3.5046 5.81898,6.8108 9.91871,7.2737"/><path id="path3769" fill="#fff" fill-opacity="1" fill-rule="nonzero" stroke="none" d="m 109.8774,156.3631 c -0.9918,-10.0509 6.9431,-16.3989 5.9513,-26.4498 l -1.9838,-1.9838 c 1.1241,-1.9837 3.7691,1.8515 3.9675,-1.3225 l -3.3062,-3.3062 c -4.0998,5.4884 -0.1984,15.4071 -3.3063,21.8211 -2.4466,-1.0579 -0.7935,-3.7691 -1.9837,-5.2899 -0.1984,1.5208 0.529,3.5046 -0.6613,4.6287 -2.3143,-4.8271 -3.4384,-10.9767 -1.9837,-16.5312 1.1903,1.4548 1.5209,3.2401 1.3225,5.29 -1.1902,-2.8434 2.5127,-5.29 -0.6612,-7.2737 l -0.6613,0.6612 c -0.9919,-2.9756 -2.9756,-4.9593 -5.9512,-5.9512 -1.52088,9.4558 -7.07535,17.1924 -10.57996,25.7886 4.16585,1.5209 8.06721,5.7529 12.56366,4.6288 0.4629,3.7691 4.5626,4.2319 7.2737,5.2899"/><path id="path3771" fill="#fff" fill-opacity="1" fill-rule="nonzero" stroke="none" d="m 54.99397,155.0406 c 0.59512,-2.5788 -2.51274,-1.9176 -3.30623,-3.9674 0.2645,1.9837 -0.06613,5.2899 3.30623,3.9674"/><path id="path3773" fill="#fff" fill-opacity="1" fill-rule="nonzero" stroke="none" d="m 195.1783,148.4282 c 7.5382,-3.1079 14.6135,-7.2737 21.8211,-11.2412 10.6461,-2.5789 20.4325,-7.3398 31.0786,-9.9187 -9.6542,-4.9594 -14.7458,-23.5404 -29.0949,-14.5474 l -13.2249,3.9674 c -8.7285,7.3399 -14.8119,16.928 -21.1599,25.7887 l 1.3225,9.9187 c 3.1079,-1.2564 5.5545,-4.1659 9.2575,-3.9675"/><path id="path3775" fill="#fff" fill-opacity="1" fill-rule="nonzero" stroke="none" d="m 57.63895,143.1382 c -0.39674,0.3306 -0.72737,0.8596 -1.32249,0.6613 l -1.32249,-1.3225 c 0.39675,-0.7935 1.25637,-0.6613 1.98374,-0.6613 -0.19837,-0.5951 0.33062,-0.9257 0.66124,-1.3225 1.91762,1.3225 3.70299,2.8434 5.95123,3.3063 1.19024,-3.3724 -8.59621,-4.2981 -1.3225,-5.29 -1.45474,-2.4466 -2.71111,-1.3225 -4.62873,-0.6613 -0.92574,0.2645 -1.32249,-0.8596 -1.98373,-1.3225 -0.19838,-2.5788 2.77723,-0.3306 3.30623,-2.6449 l -2.64499,-2.645 c -2.11599,0.529 -1.19024,3.5046 -3.30623,4.6287 1.19024,0.7935 1.52087,1.9176 1.32249,3.3062 0.59513,-0.1983 0.92575,0.3307 1.3225,0.6613 0.19837,0.5951 -0.33063,0.9257 -0.66125,1.3225 -0.39675,-0.7935 -1.25637,-0.6613 -1.98374,-0.6613 0.19837,0.5951 -0.33062,0.9258 -0.66125,1.3225 0.85962,0.1984 2.18212,-0.529 2.64499,0.6613 l -0.66125,2.6449 9.25746,3.9675 c 1.38862,-4.5626 -3.96748,-3.9675 -5.95123,-5.9512"/><path id="path3777" fill="#fff" fill-opacity="1" fill-rule="nonzero" stroke="none" d="m 94.00751,118.0108 c -2.64498,-3.5046 -5.28997,0.8597 -7.93495,1.3225 -4.62873,4.4304 -7.00921,9.7203 -10.57995,14.5475 -2.04986,-0.3968 -3.83522,-1.5209 -5.28997,-3.3063 3.37236,-5.0916 4.62873,-12.2992 10.57995,-15.2086 -6.61247,-1.1242 -10.77833,6.2818 -14.54743,9.2574 -1.32249,2.9095 2.18211,3.8352 2.64499,5.9512 -0.39675,0.3307 -0.72737,0.8596 -1.32249,0.6613 l -0.66125,-0.6613 c -0.85962,3.5708 3.37236,3.2401 4.62872,5.9512 0.99188,-2.3143 -4.95934,-3.6368 0,-3.9674 4.03361,2.0498 2.04987,8.9929 7.93496,7.9349 l 3.96748,3.3063 c 2.57887,-8.3979 9.52195,-16.2006 10.57994,-25.7887"/><path id="path3779" fill="#fff" fill-opacity="1" fill-rule="nonzero" stroke="none" d="m 51.02649,131.897 c 0.33062,0.3968 0.85962,0.7274 0.66125,1.3225 0.59512,0.1984 0.92574,-0.3306 1.32249,-0.6612 -1.19025,-0.6613 -0.46287,-2.1822 -0.66125,-3.3063 -1.98374,0.2645 -0.66124,-2.0498 -1.98374,-2.645 l -0.66125,0.6613 c 1.19025,0.4629 0.46288,1.7853 0.66125,2.645 -3.30623,3.7691 -2.38048,8.3978 -0.66125,12.5637 1.65312,-3.8353 -1.71923,-7.3399 1.3225,-10.58"/><path id="path3781" fill="#fff" fill-opacity="1" fill-rule="nonzero" stroke="none" d="m 108.5549,137.187 0.99187,0 0,0.99187 -0.99187,0 0,-0.99187 z"/><path id="path3783" fill="#fff" fill-opacity="1" fill-rule="nonzero" stroke="none" d="m 124.4249,133.2195 c -0.1323,-2.116 -2.1821,-2.7772 -3.3063,-3.3062 0.3968,1.3886 1.9176,2.9095 3.3063,3.3062"/><path id="path3785" fill="#fff" fill-opacity="1" fill-rule="nonzero" stroke="none" d="m 64.91267,121.9783 c -0.66125,0.6613 -2.18211,1.8515 -0.66125,2.645 1.19025,-0.4629 0.46287,-1.7854 0.66125,-2.645"/><path id="path3787" fill="#fff" fill-opacity="1" fill-rule="nonzero" stroke="none" d="m 194.517,124.6233 4.6287,-5.29 -4.6287,5.29"/><path id="path3789" fill="#fff" fill-opacity="1" fill-rule="nonzero" stroke="none" d="m 112.5224,121.3171 -0.6612,2.645 0.6612,-0.6613 0,-1.9837"/><path id="path3791" fill="#fff" fill-opacity="1" fill-rule="nonzero" stroke="none" d="m 109.2162,122.6396 c 0.7935,-4.8271 0.529,-10.6461 5.29,-13.225 5.2899,-1.4547 8.53,-7.7366 13.2249,-10.57991 l -1.9837,-2.64499 1.3224,-1.32249 -3.9674,0 2.645,1.98373 c -7.2738,4.29806 -16.2667,4.62876 -23.1437,9.91866 l 0,1.3225 3.3063,-2.6449 0.6612,0.6612 c -2.9756,3.5046 -3.9014,7.8027 -5.29,11.9024 2.0499,1.587 5.0916,3.5708 7.935,4.6288"/><path id="path3793" fill="#fff" fill-opacity="1" fill-rule="nonzero" stroke="none" d="m 134.3436,119.9946 c -4.8933,0.7273 -3.703,-6.348 -7.935,-5.9512 l -3.3062,-3.3063 c -1.4548,3.174 -4.761,1.7193 -6.6125,3.9675 3.703,-4.0997 7.6705,0.1323 11.9024,0 0.9919,3.4385 2.9757,5.29 5.9513,7.2737 l 0,-1.9837"/><path id="path3795" fill="#fff" fill-opacity="1" fill-rule="nonzero" stroke="none" d="m 62.26768,119.9946 c 0.529,-1.7193 -0.85962,-2.645 -1.32249,-3.9675 -1.52087,1.3225 -0.13225,4.232 1.32249,3.9675"/><path id="path3797" fill="#fff" fill-opacity="1" fill-rule="nonzero" stroke="none" d="m 62.92893,113.3821 -0.66125,0 c -0.72737,2.7772 2.71112,3.8352 1.98374,6.6125 0.92575,-1.3886 1.32249,-5.8851 -1.32249,-6.6125"/><path id="path3799" fill="#fff" fill-opacity="1" fill-rule="nonzero" stroke="none" d="m 54.99397,114.0434 c -0.39675,-0.7274 -2.18211,-2.0499 -3.30623,-0.6613 l 0.66124,3.9675 2.64499,-3.3062"/><path id="path3801" fill="#fff" fill-opacity="1" fill-rule="nonzero" stroke="none" d="m 135.6661,116.6883 c -0.9258,0.2645 -1.3225,-0.8596 -1.9838,-1.3224 l 0,-0.6613 -0.6612,0.6613 1.9837,1.9837 0.6613,-0.6613"/><path id="path3803" fill="#fff" fill-opacity="1" fill-rule="nonzero" stroke="none" d="m 216.9994,104.7859 c 0.1984,-2.9095 -3.174,-2.9095 -4.6287,-4.6287 -5.5545,1.5208 -9.4559,7.1414 -14.5475,9.9187 l -1.3225,7.2737 c 8.0672,-1.1903 14.0846,-7.406 20.4987,-12.5637"/><path id="path3805" fill="#fff" fill-opacity="1" fill-rule="nonzero" stroke="none" d="m 168.7284,100.8184 c -5.7529,-5.88507 -6.2157,4.6949 -11.2412,6.6125 -2.4466,3.1079 -9.2575,4.6287 -7.2737,9.2574 6.9431,-2.0498 15.7377,-8.001 18.5149,-15.8699"/><path id="path3807" fill="#fff" fill-opacity="1" fill-rule="nonzero" stroke="none" d="m 47.72026,115.3659 0.991871,0 0,0.99187 -0.991871,0 0,-0.99187 z"/><path id="path3809" fill="#fff" fill-opacity="1" fill-rule="nonzero" stroke="none" d="m 68.88015,114.0434 c 0,-0.7274 0.19837,-1.587 -0.66125,-1.9838 l -2.64499,0 c 0.19838,1.3886 1.58699,5.4222 3.30624,1.9838"/><path id="path3811" fill="#fff" fill-opacity="1" fill-rule="nonzero" stroke="none" d="m 141.6173,110.7371 -2.645,3.9675 3.3062,-3.3062 -0.6612,-0.6613"/><path id="path3813" fill="#fff" fill-opacity="1" fill-rule="nonzero" stroke="none" d="m 159.4709,100.8184 c -0.0661,-1.98371 -1.058,-3.17395 -3.3062,-2.64496 -3.8352,4.76096 -9.4558,9.91866 -11.9024,15.86996 l 0.6612,0.6612 c 6.1496,-2.9095 9.3897,-9.9848 14.5474,-13.8862"/><path id="path3815" fill="#fff" fill-opacity="1" fill-rule="nonzero" stroke="none" d="m 95.99126,114.0434 c 0.2645,-3.3063 1.78537,-6.0835 3.96748,-8.5962 -0.33063,-0.3968 -0.85962,-0.7274 -0.66125,-1.3225 -2.77723,1.7192 -5.48834,5.8189 -5.28998,9.9187 l 1.98375,0"/><path id="path3817" fill="#fff" fill-opacity="1" fill-rule="nonzero" stroke="none" d="m 114.5062,114.0434 0.6612,-0.6613 -0.6612,0.6613"/><path id="path3819" fill="#fff" fill-opacity="1" fill-rule="nonzero" stroke="none" d="m 135.6661,104.7859 c -2.8434,1.7192 -3.5047,5.4884 -5.9513,7.935 l 0.6613,0.6612 c 0.3306,-3.4385 5.6206,-4.8271 5.29,-8.5962"/><path id="path3821" fill="#fff" fill-opacity="1" fill-rule="nonzero" stroke="none" d="m 94.66876,104.1247 c -2.57886,0.0661 -3.70298,-3.3724 -5.95122,-3.9675 -0.46286,0.6612 -1.58699,1.058 -1.32249,1.9837 0.66125,2.1821 -1.91761,4.6949 -3.96748,6.6125 l -2.64498,0.6612 c 2.9756,6.2157 4.8271,-0.1322 9.25745,0 1.25637,-2.4466 4.76098,-2.2482 4.62872,-5.2899"/><path id="path3823" fill="#000" fill-opacity="1" fill-rule="nonzero" stroke="none" d="m 322.7988,111.3984 -1.3225,1.3225 1.3225,0 0,-1.3225"/><path id="path3825" fill="#fff" fill-opacity="1" fill-rule="nonzero" stroke="none" d="m 224.9343,109.4146 c -0.9257,0.2645 -1.3225,-0.8596 -1.9837,-1.3225 l 0.6612,-0.6612 c -1.9176,-5.1577 -5.1577,1.1902 -7.9349,1.3225 l -3.9675,3.3062 c 4.8271,0.1323 8.3979,-2.7772 13.2249,-2.645"/><path id="path3827" fill="#fff" fill-opacity="1" fill-rule="nonzero" stroke="none" d="m 74.83137,110.7371 0.66124,0.6613 1.3225,0 -1.98374,-0.6613"/><path id="path3829" fill="#fff" fill-opacity="1" fill-rule="nonzero" stroke="none" d="m 52.34898,110.7371 c 0,-0.7273 0.19838,-1.587 -0.66124,-1.9837 l 0,1.9837 0.66124,0"/><path id="path3831" fill="#fff" fill-opacity="1" fill-rule="nonzero" stroke="none" d="m 129.7148,107.4309 c -1.3225,0.6612 -2.645,1.3225 -3.9674,1.9837 l 1.3224,1.3225 2.645,-3.3062"/><path id="path3833" fill="#fff" fill-opacity="1" fill-rule="nonzero" stroke="none" d="m 144.2623,107.4309 -0.6613,-0.6613 c -1.7192,0.7935 0.8596,1.3887 0,2.645 0.8596,-0.3967 0.6613,-1.2563 0.6613,-1.9837"/><path id="path3835" fill="#fff" fill-opacity="1" fill-rule="nonzero" stroke="none" d="m 86.7338,97.51219 c -2.64498,-1.71924 -3.43847,-5.6206 -6.61246,-3.96747 l -0.66125,-0.66125 0,1.32249 c 0.59512,-0.19837 0.92575,0.33062 1.3225,0.66125 -1.45475,6.14959 -8.53008,7.00919 -7.93496,13.88619 l 3.30623,0 10.57994,-11.24121"/><path id="path3837" fill="#000" fill-opacity="1" fill-rule="nonzero" stroke="none" d="m 328.0888,107.4309 c -0.9257,-0.1984 -2.1821,0.1984 -1.9837,1.3225 0.7935,-0.1323 2.0498,-0.529 1.9837,-1.3225"/><path id="path3839" fill="#fff" fill-opacity="1" fill-rule="nonzero" stroke="none" d="m 124.4249,105.4472 -4.6288,2.6449 c 1.5209,-0.8596 4.3643,-0.0661 4.6288,-2.6449"/><path id="path3841" fill="#fff" fill-opacity="1" fill-rule="nonzero" stroke="none" d="m 208.4032,98.17344 c -5.29,-2.90949 -5.8851,5.48836 -10.58,3.96746 l 0,5.9512 c 3.5047,-3.3062 8.464,-6.0173 10.58,-9.91866"/><path id="path3843" fill="#fff" fill-opacity="1" fill-rule="nonzero" stroke="none" d="m 70.86388,105.4472 -0.66124,1.9837 0.66124,0 0,-1.9837"/><path id="path3845" fill="#fff" fill-opacity="1" fill-rule="nonzero" stroke="none" d="m 147.5685,93.54472 c 0.529,-1.52087 -0.8596,-2.18212 -1.3225,-3.30624 -3.3724,3.50461 -8.2656,7.47209 -9.2575,12.56372 5.0916,-0.6613 6.348,-6.48025 10.58,-9.25748"/><path id="path3847" fill="#000" fill-opacity="1" fill-rule="nonzero" stroke="none" d="m 290.3978,98.83469 -2.645,-1.3225 c 0,-1.12411 0.2645,-3.96747 -1.3225,-5.28997 -2.7773,-3.96748 -5.0255,-1.65311 -7.935,0.66125 0.8596,-0.19837 2.1822,0.529 2.645,-0.66125 1.1241,0.92574 0.7935,2.97561 0,3.96748 0.9257,-0.2645 1.3225,0.85962 1.9838,1.32249 0.3967,-0.33062 0.7273,-0.85962 1.3224,-0.66125 0.3307,0.39676 0.8597,0.72738 0.6613,1.3225 -3.3063,2.38046 -6.0835,0 -9.2575,2.64496 4.8272,-2.64496 9.2575,-0.3306 14.5475,-1.98371"/><path id="path3849" fill="#fff" fill-opacity="1" fill-rule="nonzero" stroke="none" d="m 112.5224,95.52846 c -1.587,0.06611 -2.0498,-2.71112 -3.9675,-1.98374 0.3968,1.71923 0.9919,3.96747 2.645,4.62872 l -1.9837,1.32249 c 2.9095,0.19838 1.587,-2.71111 3.3062,-3.96747"/><path id="path3851" fill="#fff" fill-opacity="1" fill-rule="nonzero" stroke="none" d="m 202.452,96.85094 c -6.9431,-4.82709 -15.0765,-10.91056 -21.1599,-17.85365 -1.7854,2.44661 -5.4884,2.38049 -7.935,1.32249 -8.9268,-1.45474 -14.6135,5.0916 -23.1436,4.62873 -1.058,1.19025 -2.5789,2.11599 -1.9838,3.96748 3.9675,4.09973 7.0754,-1.78537 10.58,-2.64499 13.4894,-2.04986 29.5577,-0.92575 37.691,12.56369 l 5.9513,-1.98375"/><path id="path3853" fill="#000" fill-opacity="1" fill-rule="nonzero" stroke="none" d="m 187.2433,97.51219 0.99187,0 0,0.991875 -0.99187,0 0,-0.991875 z"/><path id="path3855" fill="#000" fill-opacity="1" fill-rule="nonzero" stroke="none" d="m 275.8503,96.85094 0.99185,0 0,0.991875 -0.99185,0 0,-0.991875 z"/><path id="path3857" fill="#fff" fill-opacity="1" fill-rule="nonzero" stroke="none" d="m 67.55766,93.54472 c -0.85962,-3.10786 -6.74472,0.79349 -2.64499,-3.30624 1.52086,2.18211 3.10786,-1.52086 4.62873,0.66125 -0.33063,0.39675 -0.85962,0.72737 -0.66125,1.32249 l 0.66125,0.66125 c 0.66124,-1.12412 2.71111,-1.65312 1.98373,-3.30624 -0.59511,0.19838 -0.92574,-0.33062 -1.32249,-0.66124 0.33062,-0.92575 0.46287,-1.91762 1.32249,-2.64499 1.98374,1.19025 2.11599,3.17398 1.98374,5.28997 1.8515,0.66125 1.78537,-1.78536 2.64499,-2.64498 0.39675,0.33062 0.72737,0.85962 1.3225,0.66124 -2.11599,-3.5046 -6.08348,-5.62059 -9.9187,-7.27371 -1.98375,0.529 -4.8271,-0.85962 -7.27372,-1.32249 l 3.30624,3.30623 c -1.58699,0.92575 -2.04987,0.99187 -3.96748,0.66125 0.13224,1.85149 2.18211,1.78537 3.30623,2.64499 l 3.96748,-0.66125 0,-1.32249 c -0.85962,-0.19838 -2.18212,0.529 -2.64499,-0.66125 1.91762,-0.46287 3.57073,-2.11599 5.28998,0 0.06612,2.11599 -2.3805,3.76911 -3.96749,4.62872 -0.85962,-0.19837 -2.18211,0.529 -2.64498,-0.66124 l -2.64499,1.98374 1.98374,1.98374 c 0.39675,-0.33063 0.72737,-0.85962 1.3225,-0.66125 l 0.66124,0.66125 c -2.11599,1.05799 -0.46287,2.04986 0,3.30623 2.44662,0.99187 2.31437,-1.45474 3.30624,-2.64498"/><path id="path3859" fill="#fff" fill-opacity="1" fill-rule="nonzero" stroke="none" d="m 126.4086,90.89973 c 4.6949,-4.36423 8.6623,-8.99295 11.9024,-13.88618 l -1.3225,-3.30624 c -6.8108,5.75285 -12.6959,12.43145 -20.4986,17.19242 -0.6612,1.12412 -2.7111,1.65311 -1.9837,3.30623 4.0336,-0.92575 7.472,-3.30623 11.9024,-3.30623"/><path id="path3861" fill="#fff" fill-opacity="1" fill-rule="nonzero" stroke="none" d="m 108.5549,89.57723 8.5962,-7.93496 c 1.1903,2.31437 3.8353,2.38049 5.29,0.66125 2.3805,-4.89322 6.1496,-9.25745 9.2575,-13.88618 -5.1577,2.84336 -9.1252,8.46396 -14.5475,10.57995 l -0.6612,-0.66125 -0.6612,0.66125 c 0.5951,-0.19838 0.9257,0.33062 1.3224,0.66125 -1.4547,1.85149 -4.827,1.78536 -7.2737,2.64498 -3.2401,-0.06612 -5.0254,3.37236 -7.9349,3.96748 0.7935,1.65312 5.4883,10.24932 6.6124,3.30623"/><path id="path3863" fill="#fff" fill-opacity="1" fill-rule="nonzero" stroke="none" d="m 281.8015,92.22222 0.99188,0 0,0.991867 -0.99188,0 0,-0.991867 z"/><path id="path3865" fill="#000" fill-opacity="1" fill-rule="nonzero" stroke="none" d="m 69.5414,90.23848 0.991867,0 0,0.991875 -0.991867,0 0,-0.991875 z"/><path id="path3867" fill="#fff" fill-opacity="1" fill-rule="nonzero" stroke="none" d="m 221.6281,86.271 -5.29,3.96748 1.9838,0 3.3062,-3.96748"/><path id="path3869" fill="#fff" fill-opacity="1" fill-rule="nonzero" stroke="none" d="m 99.95874,78.99729 -5.28998,2.64498 2.64499,1.98374 c 0.85962,-1.52086 0.7935,-3.5046 2.64499,-4.62872"/><path id="path3871" fill="#fff" fill-opacity="1" fill-rule="nonzero" stroke="none" d="m 92.68503,79.65854 -1.3225,0 c 0.39675,0.33062 0.72737,0.85962 1.3225,0.66124 l 0,-0.66124"/><path id="path3873" fill="#fff" fill-opacity="1" fill-rule="nonzero" stroke="none" d="m 119.7961,69.07859 -14.5474,3.96748 c 2.3805,1.19024 4.3642,-2.51274 5.9512,0.66124 -1.9176,1.058 -4.4303,0.66125 -5.9512,2.64499 6.4141,1.25637 10.5138,-4.2981 14.5474,-7.27371"/><path id="path3875" fill="#fff" fill-opacity="1" fill-rule="nonzero" stroke="none" d="m 139.6335,75.02981 c 0.1984,-0.59512 -0.3306,-0.92575 -0.6612,-1.3225 l 0,1.3225 0.6612,0"/><path id="path3877" fill="#fff" fill-opacity="1" fill-rule="nonzero" stroke="none" d="m 140.956,71.06233 -2.645,0 c 0.529,1.38862 1.4548,1.45474 2.645,1.98374 l 0,-1.98374"/><path id="path3879" fill="#000" fill-opacity="1" fill-rule="nonzero" stroke="none" d="m 113.8449,72.38483 0.6613,-0.66125 -0.6613,0.66125"/><path id="path3881" fill="#fff" fill-opacity="1" fill-rule="nonzero" stroke="none" d="m 136.3273,63.78862 -1.3225,0 c 0.1984,0.59512 -0.3306,0.92574 -0.6612,1.32249 l -1.3225,0 0,1.98374 c -0.0661,-2.57886 3.3062,-0.99187 3.3062,-3.30623"/><path id="path3883" fill="#fff" fill-opacity="1" fill-rule="nonzero" stroke="none" d="m 240.8043,61.14363 -3.3063,5.95122 c 1.1242,-1.98374 2.9095,-3.70298 3.3063,-5.95122"/></g></g></g></g></g></g><text font-stretch="normal" style="line-height:200%;-inkscape-font-specification:'Plantagenet Cherokee, Normal';text-align:start" id="text4685" x="96.694" y="-123.96" fill="#000" fill-opacity="1" stroke="none" stroke-linecap="butt" stroke-linejoin="miter" stroke-opacity="1" stroke-width="1" font-family="Plantagenet Cherokee" font-size="166.799" font-style="normal" font-variant="normal" font-weight="normal" letter-spacing="0" opacity=".79" text-anchor="start" transform="scale(0.93043042,-1.0747714)" word-spacing="0" writing-mode="lr-tb" xml:space="preserve"><tspan id="tspan4687" x="96.694" y="-123.96">[C]</tspan></text></g></svg>