<svg xmlns="http://www.w3.org/2000/svg" version="1.1" viewBox="0 0 2500 2000">
  <g transform="translate(0, 1500) scale(1, -1)">
    <!-- Left Bracket -->
    <path d="M494 1452q-41 -2 -89.5 -3t-93.5 -3t-83 -6t-58 -13q16 -192 20.5 -388.5t4.5 -397.5q0 -211 -4.5 -422t-20.5 -428q23 -10 61.5 -16t82.5 -9.5t91.5 -4.5t88.5 -3q8 0 13 -10t5 -22.5t-5 -22.5t-13 -10h-463q18 239 35.5 474.5t17.5 471.5q0 223 -16.5 441t-36.5 438h463q12 0 18 -10.5t6 -22.5t-6 -22.5t-18 -10.5z" fill="#000" opacity=".79" transform="translate(0,0)"/>
    
    <!-- Letter C -->
    <path d="M813 1417q92 0 170 -22.5t154 -59.5q22 -10 41.5 -19t33.5 -9q33 0 43 39q2 8 13.5 12t23 3t19.5 -5t6 -13q-8 -32 -11 -67t-3 -72q0 -57 8 -114.5t16 -118.5q0 -8 -9 -13.5t-22.5 -6.5t-26 3t-14.5 15q-51 184 -165.5 271t-288.5 87q-135 0 -223.5 -57.5t-140.5 -146.5t-72.5 -198.5t-20.5 -213.5q0 -115 24.5 -229.5t80 -207t144.5 -150.5t216 -58q98 0 176 17t131 64q66 60 105 143t55 187q2 15 13 19t23.5 1t23 -11.5t7.5 -16.5q-6 -41 -8 -81t-2 -81q0 -69 5 -142t10 -153q0 -12 -8.5 -18t-19.5 -7t-21.5 4t-12.5 15q-4 19 -14 36t-26.5 28.5t-38 11.5t-48.5 -14q-45 -25 -87 -42.5t-85 -27.5t-90 -14t-102 -4q-363 0 -538 181t-175 519q0 180 55.5 318.5t152.5 231.5t231 140t292 47z" fill="#000" opacity=".79" transform="translate(450,-100)"/>
    
    <!-- Right Bracket -->
    <path d="M66 1452q-13 0 -19 10.5t-6 22.5t6 22.5t19 10.5h462q-20 -220 -36.5 -438t-16.5 -441q0 -236 17.5 -471.5t35.5 -474.5h-462q-11 0 -15 10t-4 22.5t4 22.5t15 10q40 2 87.5 3t91.5 4.5t83 9.5t61 16q-16 217 -20 428t-4 422q0 201 4 397.5t20 388.5q-20 9 -58 13t-83 6t-93.5 3t-88.5 3z" fill="#000" opacity=".79" transform="translate(1800,0)"/>
  </g>
</svg>
